<?xml version="1.0" encoding="utf-8"?>
<svg viewBox="0 0 500 500" xmlns="http://www.w3.org/2000/svg">
  <defs>
    <radialGradient cx="0" cy="0" r="1" gradientUnits="userSpaceOnUse" gradientTransform="matrix(2287.41,-1542.88,-1542.88,-2287.41,3021.2,3888.96)" spreadMethod="pad" id="radialGradient18">
      <stop style="stop-opacity:1;stop-color:#fbc707" offset="0" id="stop14"/>
      <stop style="stop-opacity:1;stop-color:#f47216" offset="1" id="stop16"/>
    </radialGradient>
    <clipPath clipPathUnits="userSpaceOnUse" id="clipPath30">
      <path d="M 0,0 H 5932 V 1236 H 0 Z" clip-rule="evenodd" id="path28"/>
    </clipPath>
    <linearGradient x1="0" y1="0" x2="1" y2="0" gradientUnits="userSpaceOnUse" gradientTransform="matrix(-7e-5,-1527.22,-5972.08,2.6e-4,5952.08,1018.96)" spreadMethod="pad" id="linearGradient36">
      <stop style="stop-opacity:1;stop-color:#f47216" offset="0" id="stop32"/>
      <stop style="stop-opacity:1;stop-color:#b01419" offset="1" id="stop34"/>
    </linearGradient>
    <clipPath clipPathUnits="userSpaceOnUse" id="clipPath58">
      <path d="m 2012.4,2973.6 c -132.48,-105.12 -241.92,-239.76 -318.24,-392.4 l -464.4,231.84 c 110.88,219.6 267.84,412.56 458.64,565.92 l 324,-405.36" clip-rule="evenodd" id="path56"/>
    </clipPath>
    <linearGradient x1="0" y1="0" x2="1" y2="0" gradientUnits="userSpaceOnUse" gradientTransform="matrix(398.627,-548.662,-620.955,-451.151,1711.55,3421.71)" spreadMethod="pad" id="linearGradient64">
      <stop style="stop-opacity:1;stop-color:#b3e3b7" offset="0" id="stop60"/>
      <stop style="stop-opacity:1;stop-color:#e5f5e4" offset="1" id="stop62"/>
    </linearGradient>
    <clipPath clipPathUnits="userSpaceOnUse" id="clipPath76">
      <path d="m 1694.16,2581.2 c -52.56,-104.4 -90,-217.44 -109.44,-336.24 h -523.44 c 23.04,202.32 81.36,393.84 168.48,568.08 l 150.48,-74.88 v 0 c 38.16,-19.44 78.48,-1.44 79.2,23.76 1.44,32.4 -28.08,85.68 -1.44,114.48 25.2,27.36 79.92,30.24 125.28,2.88 30.96,-19.44 59.76,-60.48 54,-97.2 -8.64,-53.28 -63.36,-38.88 -91.44,-61.2 -27.36,-22.32 -9.36,-60.48 15.84,-74.16 l 132.48,-65.52" clip-rule="evenodd" id="path74"/>
    </clipPath>
    <linearGradient x1="0" y1="0" x2="1" y2="0" gradientUnits="userSpaceOnUse" gradientTransform="matrix(466.444,-207.674,-340.984,-765.863,1393.2,2992.97)" spreadMethod="pad" id="linearGradient82">
      <stop style="stop-opacity:1;stop-color:#66cef5" offset="0" id="stop78"/>
      <stop style="stop-opacity:1;stop-color:#cceffc" offset="1" id="stop80"/>
    </linearGradient>
    <clipPath clipPathUnits="userSpaceOnUse" id="clipPath106">
      <path d="m 3285.36,3664.8 c 226.8,-75.6 432,-197.28 605.52,-354.24 L 3542.4,2926.8 c -120.24,108.72 -262.8,192.96 -420.48,245.52 l 46.08,138.96 c 9.36,28.08 44.64,51.84 70.56,27.36 26.64,-24.48 20.16,-80.64 74.16,-81.36 37.44,-0.72 74.16,33.12 88.56,66.96 20.88,48.96 10.08,102.24 -20.88,123.84 -32.4,22.32 -80.64,-14.4 -113.04,-18 -24.48,-2.88 -48.24,34.56 -34.56,74.88 h -0.72 l 53.28,159.84" clip-rule="evenodd" id="path104"/>
    </clipPath>
    <linearGradient x1="0" y1="0" x2="1" y2="0" gradientUnits="userSpaceOnUse" gradientTransform="matrix(-2e-5,-561.862,-808.96,4e-5,3910.88,3498.96)" spreadMethod="pad" id="linearGradient112">
      <stop style="stop-opacity:1;stop-color:#b3e3b7" offset="0" id="stop108"/>
      <stop style="stop-opacity:1;stop-color:#e5f5e4" offset="1" id="stop110"/>
    </linearGradient>
    <clipPath clipPathUnits="userSpaceOnUse" id="clipPath122">
      <path d="m 2910.96,4713.12 c 166.32,-5.04 326.88,-34.56 478.08,-84.96 l -52.56,-159.84 v 0 c -13.68,-41.04 10.08,-77.76 35.28,-74.88 31.68,3.6 80.64,40.32 112.32,18 30.96,-21.6 41.76,-75.6 20.88,-123.84 -14.4,-33.84 -51.12,-68.4 -88.56,-67.68 -53.28,1.44 -47.52,57.6 -73.44,82.08 -26.64,24.48 -61.92,0 -71.28,-27.36 v 0 l -46.08,-138.96 c -105.12,35.28 -216.72,55.44 -331.92,59.04 l 5.04,146.88 c 0.72,29.52 -25.2,64.08 -57.59,50.4 -33.85,-14.4 -46.81,-69.12 -97.93,-51.12 -35.28,12.24 -57.6,56.88 -59.76,93.6 -2.16,53.28 26.64,100.08 62.64,109.44 38.16,9.36 70.56,-41.76 99.36,-56.16 20.88,-10.8 54,11.52 59.76,49.68 l 5.76,175.68" clip-rule="evenodd" id="path120"/>
    </clipPath>
    <linearGradient x1="0" y1="0" x2="1" y2="0" gradientUnits="userSpaceOnUse" gradientTransform="matrix(-323.797,-301.945,-530.515,568.908,3459.09,4196.75)" spreadMethod="pad" id="linearGradient128">
      <stop style="stop-opacity:1;stop-color:#66cef5" offset="0" id="stop124"/>
      <stop style="stop-opacity:1;stop-color:#cceffc" offset="1" id="stop126"/>
    </linearGradient>
    <clipPath clipPathUnits="userSpaceOnUse" id="clipPath138">
      <path d="m 3640.32,4610.88 c -12.24,5.76 -10.8,20.16 -2.16,25.92 0,-4.32 10.08,-4.32 16.56,-3.6 15.12,2.16 38.16,3.6 56.16,-1.44 28.8,-7.92 39.6,-29.52 33.84,-59.76 -3.59,-20.16 -13.68,-48.24 -11.52,-59.04 2.88,-11.52 12.96,-25.92 28.08,-38.16 33.12,-25.2 42.48,-50.4 41.04,-59.04 -14.4,-72 -50.4,-159.12 -61.19,-209.52 -3.61,-18.72 -8.65,-38.16 -8.65,-58.32 -2.16,-99.36 -18,-211.68 -19.44,-310.32 0,-11.52 5.04,-23.04 11.52,-30.96 20.88,-26.64 24.48,-56.16 24.48,-85.68 -0.72,-46.8 -8.64,-100.08 -7.91,-146.88 0,-7.2 3.59,-19.44 0,-23.76 0,-8.64 0,-12.96 3.59,-20.88 3.6,-7.92 5.76,-21.6 -5.04,-23.76 -26.64,-5.04 -36,-23.04 -55.44,-21.6 l -21.6,0.72 c -2.88,0 -18,10.08 -21.6,13.68 -5.04,5.04 1.44,12.24 4.32,10.8 6.48,-2.88 18.72,-2.88 23.04,0.72 7.2,4.32 14.4,12.96 21.6,15.84 14.4,6.48 15.12,32.4 14.4,41.04 -2.88,57.6 -10.08,132.48 -23.76,191.52 -3.6,15.84 -16.56,25.92 -20.88,41.76 -2.16,7.92 -0.72,15.12 -3.6,23.04 -29.52,74.88 -25.92,173.52 -46.08,252.72 -1.44,-15.12 1.44,-28.8 4.32,-46.8 -33.84,-43.92 -81.36,-81.36 -113.04,-123.84 -4.32,-5.76 -9.36,-11.52 -9.36,-19.44 -1.44,-19.44 0.72,-33.12 -4.32,-55.44 -14.4,-58.32 -43.2,-107.28 -51.12,-166.32 -1.44,-12.96 0,-19.44 1.44,-30.24 1.44,-12.24 -11.52,-23.04 -18,-20.16 l -88.56,35.28 c -6.48,2.88 -3.6,12.96 0,11.52 8.64,-1.44 25.2,-5.04 34.56,-3.6 18.72,2.16 32.4,5.76 36.72,20.16 12.24,46.08 24.48,142.56 31.68,211.68 1.44,18 -2.16,38.16 6.48,55.44 26.64,51.84 60.48,105.12 92.16,154.08 28.09,43.2 39.6,72.72 46.8,97.2 3.6,12.24 2.88,24.48 5.04,36.72 20.16,5.76 42.48,7.2 63.36,13.68 7.92,2.16 17.28,5.76 23.76,11.52 30.96,30.96 60.48,65.52 87.84,99.36 -28.08,-27.36 -56.88,-58.32 -87.12,-84.24 -10.08,-8.64 -21.59,-17.28 -34.56,-19.44 -57.6,-11.52 -160.56,-36 -166.32,-40.32 -6.48,-5.76 -15.12,-7.2 -21.6,-9.36 -2.16,-0.72 -6.48,1.44 -10.08,0.72 -3.6,-1.44 -7.92,1.44 -10.8,2.88 -2.88,-0.72 -7.92,0 -9.36,0.72 -8.64,1.44 -11.52,5.04 -19.44,7.2 -2.88,0.72 -6.48,2.16 -7.92,3.6 -2.88,3.6 2.16,7.92 11.52,5.76 3.6,-0.72 7.2,-2.16 10.8,-2.88 4.32,-1.44 8.64,0.72 12.96,0 2.88,0 5.04,6.48 12.96,12.24 4.32,2.88 9.36,7.92 10.8,11.52 -6.48,0 -9.36,0.72 -15.12,2.16 -5.76,-3.6 -12.24,-2.16 -18,0 -2.88,0.72 -2.88,5.04 -0.72,5.04 9.36,1.44 18,8.64 23.04,8.64 9.36,0 23.76,1.44 29.52,-0.72 7.2,-2.16 14.4,-6.48 22.32,-7.92 41.76,10.08 83.52,33.84 125.28,44.64 5.76,1.44 8.64,5.04 11.52,8.64 27.36,29.52 56.16,57.6 84.24,86.4 -29.52,-26.64 -59.04,-53.28 -88.56,-80.64 -3.6,-3.6 -8.64,-7.2 -14.4,-8.64 -5.76,-1.44 -12.96,-3.6 -18,-5.04 5.76,34.56 14.4,71.28 23.04,104.4 -8.64,-23.04 -16.56,-45.36 -23.76,-70.56 -9.36,-7.92 -18,-17.28 -27.36,-25.2 -5.76,-4.32 -10.8,-7.92 -15.84,-8.64 -15.84,-3.6 -30.24,-8.64 -45.36,-12.96 0.72,0.72 0.72,2.16 1.44,2.88 5.76,14.4 9.36,28.8 10.08,42.48 l 12.24,4.32 c 6.48,2.16 12.96,7.2 15.84,12.24 23.76,39.6 48.24,81.36 73.44,118.8 6.48,9.36 12.96,17.28 23.76,20.16 7.2,2.16 15.12,2.16 22.32,4.32 0,2.16 -2.16,6.48 -1.44,8.64 13.68,2.16 30.24,2.16 42.48,9.36 6.48,2.88 8.64,12.24 10.08,20.16 -1.44,-6.48 -5.04,-15.12 -11.52,-17.28 -15.84,-5.76 -32.4,-5.04 -48.96,-5.76 -5.76,-0.72 -13.68,1.44 -15.12,7.2 -7.92,30.96 -5.04,66.24 2.16,98.64" clip-rule="evenodd" id="path136"/>
    </clipPath>
    <linearGradient x1="0" y1="0" x2="1" y2="0" gradientUnits="userSpaceOnUse" gradientTransform="matrix(-260.56,-1045.05,-546.076,136.152,3996.72,4412.78)" spreadMethod="pad" id="linearGradient146">
      <stop style="stop-opacity:1;stop-color:#231f20" offset="0" id="stop140"/>
      <stop style="stop-opacity:1;stop-color:#231f20" offset="0.4647" id="stop142"/>
      <stop style="stop-opacity:1;stop-color:#a7a5a6" offset="1" id="stop144"/>
    </linearGradient>
    <clipPath clipPathUnits="userSpaceOnUse" id="clipPath156">
      <path d="m 2666.16,4792.32 c 8.64,2.88 9.36,19.44 -2.16,27.36 0.72,-4.32 -7.92,-7.2 -18.71,0 -20.89,15.84 -55.45,23.04 -77.05,10.08 -33.12,-21.6 -28.8,-65.52 -24.48,-92.88 3.6,-24.48 -0.72,-38.88 -15.12,-48.24 -12.24,-8.64 -19.44,-7.2 -33.84,-12.24 -11.52,-4.32 -22.32,-15.12 -26.64,-32.4 -24.48,-93.6 -27.36,-187.2 -37.44,-282.24 -3.6,-33.84 -5.76,-71.28 -6.48,-105.12 -1.44,-82.08 8.64,-134.64 7.92,-217.44 0,-8.64 -11.52,-23.04 -21.6,-30.96 -29.52,-21.6 -64.08,-95.76 -75.6,-131.76 -8.64,-28.08 -8.64,-55.44 -23.76,-80.64 -6.48,-11.52 -22.32,-17.28 -17.28,-28.8 5.04,-13.68 18.72,-15.12 32.4,-36.72 7.92,-10.8 24.48,-25.92 33.12,-23.76 l 26.64,5.76 c 9.36,1.44 10.8,10.08 7.2,12.24 -2.15,0.72 -11.52,1.44 -17.28,7.2 -9.36,7.92 -15.12,19.44 -21.6,30.24 -5.76,11.52 -7.92,23.76 -4.32,33.84 20.16,48.24 64.08,119.52 99.36,162.72 11.52,14.4 25.92,21.6 38.16,36.72 10.08,12.96 11.52,23.76 19.44,44.64 21.6,54 16.56,115.92 31.68,171.36 0,0.72 6.48,18.72 7.92,25.92 0,-8.64 -0.72,-19.44 -2.16,-26.64 2.16,-3.6 5.76,-12.96 7.2,-15.84 25.2,-55.44 53.28,-110.16 88.56,-165.6 5.05,-8.64 8.64,-20.88 5.76,-30.24 -9.36,-35.28 -4.32,-68.4 7.2,-100.8 10.8,-38.16 22.32,-71.28 31.68,-110.16 1.44,-7.2 -1.44,-16.56 -2.16,-23.04 -1.44,-7.2 0,-15.12 7.92,-15.12 l 100.08,0.72 c 10.08,0 10.8,12.24 5.04,12.24 -9.36,0.72 -18.72,6.48 -28.8,10.8 -15.83,5.76 -27.36,10.8 -39.6,21.6 -6.48,5.76 -8.64,15.84 -10.08,23.76 -9.36,56.88 -15.12,118.08 -8.64,185.76 1.44,14.4 1.44,29.52 -5.76,51.84 -9.36,28.08 -16.56,56.88 -26.64,84.24 -24.48,69.12 -77.04,195.12 -75.6,205.92 0.72,7.92 5.76,23.04 7.2,30.24 -25.2,13.68 -54.72,24.48 -79.92,41.76 -7.2,4.32 -12.96,11.52 -15.12,19.44 -12.96,46.08 -22.32,92.88 -29.52,137.52 3.6,-15.12 7.2,-30.24 11.52,-46.08 7.2,-28.8 15.12,-58.32 24.48,-86.4 2.16,-6.48 7.92,-12.24 12.96,-15.84 38.16,-27.36 87.12,-46.08 126.72,-69.84 10.8,-6.48 18.72,-21.6 25.2,-25.2 7.92,-3.6 12.96,-4.32 21.6,-4.32 4.32,0 8.64,0 13.68,0 2.16,0 5.76,-1.44 8.64,-1.44 7.92,0 14.4,1.44 21.6,2.88 3.6,0.72 0.72,7.2 -5.04,8.64 -5.04,1.44 -7.92,0.72 -12.24,0.72 -3.6,1.44 -9.36,4.32 -14.4,5.04 -3.6,2.16 -8.64,4.32 -11.52,7.2 -5.04,5.76 -5.04,12.24 -5.04,16.56 5.04,0 9.36,0.72 13.68,2.16 4.32,-0.72 9.36,-0.72 12.24,1.44 2.88,1.44 3.6,4.32 1.44,5.76 -1.44,0.72 -5.04,1.44 -10.08,3.6 -3.6,0.72 -7.2,3.6 -10.08,4.32 -7.92,2.16 -30.96,0.72 -35.28,3.6 -20.16,15.84 -44.64,34.56 -65.52,49.68 -8.64,6.48 -15.12,9.36 -24.48,15.84 -7.92,5.76 -8.64,20.16 -12.23,41.76 -2.89,15.84 -5.77,31.68 -8.65,48.24 -2.88,16.56 -5.76,32.4 -8.64,48.96 10.08,-31.68 15.12,-62.64 22.32,-94.32 3.6,-12.24 6.48,-36 10.8,-38.88 10.8,-8.64 24.48,-15.12 34.56,-24.48 6.48,36 10.08,80.64 14.4,116.64 0.72,-24.48 1.44,-55.44 -2.88,-81.36 12.25,-23.04 18,-34.56 29.52,-43.92 0,20.16 5.76,41.04 14.4,59.04 -5.76,33.84 -14.4,94.32 -22.32,127.44 -2.16,10.08 -6.48,23.76 -13.68,30.96 -10.08,10.8 -20.16,12.96 -30.96,23.04 1.44,3.6 7.92,10.08 9.36,14.4 -8.64,2.88 -23.76,8.64 -32.4,16.56 13.68,-5.04 27.36,-10.08 42.48,-12.24 8.64,-1.44 13.68,3.6 15.85,10.08 7.19,26.64 13.67,48.24 19.43,74.88 0.72,5.76 2.16,16.56 1.44,21.6" clip-rule="evenodd" id="path154"/>
    </clipPath>
    <linearGradient x1="0" y1="0" x2="1" y2="0" gradientUnits="userSpaceOnUse" gradientTransform="matrix(-4e-5,-978.993,-552.642,2e-5,2821.52,4758.96)" spreadMethod="pad" id="linearGradient164">
      <stop style="stop-opacity:1;stop-color:#231f20" offset="0" id="stop158"/>
      <stop style="stop-opacity:1;stop-color:#231f20" offset="0.4647" id="stop160"/>
      <stop style="stop-opacity:1;stop-color:#a7a5a6" offset="1" id="stop162"/>
    </linearGradient>
    <clipPath clipPathUnits="userSpaceOnUse" id="clipPath174">
      <path d="m 3778.56,3186.72 c -28.8,-31.68 -74.16,-29.52 -84.24,-5.76 -12.96,29.52 -4.32,90 -39.6,106.56 -33.84,16.56 -85.68,-0.72 -118.08,-42.48 -22.32,-28.8 -34.56,-77.76 -15.12,-110.16 27.36,-46.08 72.72,-12.96 107.28,-23.76 33.84,-10.8 31.68,-54 12.24,-75.6 L 3542.4,2926.8 c 95.76,-87.12 177.84,-189.36 240.48,-303.84 l 517.68,124.56 c -96.48,214.56 -236.88,406.8 -409.68,563.04 l -112.32,-123.84 v 0" clip-rule="evenodd" id="path172"/>
    </clipPath>
    <linearGradient x1="0" y1="0" x2="1" y2="0" gradientUnits="userSpaceOnUse" gradientTransform="matrix(-371.687,-280.086,-548.21,727.5,4250.37,2684.65)" spreadMethod="pad" id="linearGradient180">
      <stop style="stop-opacity:1;stop-color:#66cef5" offset="0" id="stop176"/>
      <stop style="stop-opacity:1;stop-color:#cceffc" offset="1" id="stop178"/>
    </linearGradient>
    <clipPath clipPathUnits="userSpaceOnUse" id="clipPath194">
      <path d="m 2749.68,3751.2 c 19.44,0 38.16,-0.72 57.6,-1.44 l -5.76,-175.68 c -5.76,-38.16 -38.88,-60.48 -59.76,-49.68 -28.8,14.4 -61.2,65.52 -99.36,56.16 -36.72,-9.36 -64.8,-56.16 -62.64,-109.44 2.16,-36 24.48,-81.36 59.76,-93.6 50.4,-17.28 64.08,37.44 97.92,51.12 32.4,13.68 58.32,-20.88 57.6,-50.4 L 2790,3232.08 c -13.68,0 -26.64,0.72 -40.32,0.72 -158.4,0 -310.32,-31.68 -448.55,-88.56 l -197.29,479.52 c 199.44,82.08 417.6,127.44 645.84,127.44" clip-rule="evenodd" id="path192"/>
    </clipPath>
    <linearGradient x1="0" y1="0" x2="1" y2="0" gradientUnits="userSpaceOnUse" gradientTransform="matrix(324.664,-446.862,-651.588,-473.406,2697,3935.58)" spreadMethod="pad" id="linearGradient200">
      <stop style="stop-opacity:1;stop-color:#b3e3b7" offset="0" id="stop196"/>
      <stop style="stop-opacity:1;stop-color:#e5f5e4" offset="1" id="stop198"/>
    </linearGradient>
    <clipPath clipPathUnits="userSpaceOnUse" id="clipPath210">
      <path d="m 2301.13,3144.24 c -104.41,-43.2 -201.61,-100.8 -288.73,-170.64 l -91.44,115.2 c -18.72,22.32 -60.48,32.4 -76.32,0.72 -16.56,-32.4 8.64,-82.8 -41.04,-102.24 -35.28,-14.4 -81.36,5.76 -106.56,32.4 -36,38.16 -44.64,92.16 -23.04,123.12 22.32,32.4 80.64,14.4 111.6,22.32 23.04,5.04 33.12,43.2 12.96,76.32 l -110.16,137.52 c 125.28,100.08 264.96,182.88 415.44,244.8 l 68.4,-165.6 c 18.72,-31.68 55.44,-41.04 70.56,-23.76 22.32,23.76 34.56,82.8 73.44,87.12 37.44,3.6 85.68,-29.52 97.2,-79.92 8.64,-40.32 -0.72,-88.56 -23.76,-109.44 -39.6,-35.28 -72.72,12.96 -109.44,14.4 -35.28,1.44 -46.08,-39.6 -34.56,-66.96 v 0 l 55.45,-135.36 v 0" clip-rule="evenodd" id="path208"/>
    </clipPath>
    <linearGradient x1="0" y1="0" x2="1" y2="0" gradientUnits="userSpaceOnUse" gradientTransform="matrix(239.007,-512.552,-811.099,-378.222,2330,3693.57)" spreadMethod="pad" id="linearGradient216">
      <stop style="stop-opacity:1;stop-color:#66cef5" offset="0" id="stop212"/>
      <stop style="stop-opacity:1;stop-color:#cceffc" offset="1" id="stop214"/>
    </linearGradient>
  </defs>
  <g id="g10" transform="matrix(0.759562, 0, 0, -0.74074, 33.501302, 451.915785)" style="">
    <g id="g12" transform="scale(0.1)">
      <path d="M 0,0 H 5932 V 5803 H 0 Z" style="fill: url(#radialGradient18); fill-rule: nonzero; stroke: none; fill-opacity: 0;" id="path20"/>
      <path d="m 2889.36,4699.44 21.6,13.68 c 149.76,-17.28 313.92,-51.12 457.2,-98.64 l -53.28,-159.84 v 0 c -13.68,-41.04 10.08,-77.76 35.28,-74.88 32.4,3.6 80.64,40.32 112.32,18 30.96,-21.6 45.36,-78.48 24.48,-127.44 -14.4,-33.12 -44.64,-64.08 -82.08,-63.36 -53.28,1.44 -56.88,56.88 -83.52,81.36 -25.92,24.48 -61.92,0 -71.28,-27.36 v 0 L 3225.6,4135.68 3204,4122 c -105.12,34.56 -216.72,55.44 -331.92,59.04 l 5.04,146.88 c 0.72,28.8 -21.6,65.52 -54.72,51.84 -12.24,-5.76 -19.44,-19.44 -30.24,-30.96 -17.28,-18 -38.16,-32.4 -69.84,-21.6 -36,12.24 -58.32,56.88 -59.76,93.6 -2.88,53.28 34.56,108.72 71.28,118.08 37.44,10.08 61.2,-50.4 90.72,-64.8 20.88,-10.8 58.32,12.96 59.04,49.68 l 5.76,175.68" style="fill: rgb(235, 248, 254); fill-rule: evenodd; stroke: none; fill-opacity: 0;" id="path22"/>
      <g id="g24">
        <g id="g26" clip-path="url(#clipPath30)">
          <path d="M 0,0 H 5932 V 1236 H 0 Z" style="fill: url(#linearGradient36); fill-rule: nonzero; stroke: none; fill-opacity: 0;" id="path38"/>
        </g>
      </g>
      <path d="M 1726.56,0 H 0 V 2373.12 L 268.563,2340 c 20.16,-20.88 41.039,-41.76 61.917,-61.92 17.282,0.72 33.84,1.44 51.122,2.16 13.679,-3.6 26.64,-7.2 40.32,-10.8 136.801,12.96 274.316,25.92 411.121,38.88 15.84,5.76 31.68,12.24 47.52,18 210.957,-5.04 421.917,-10.8 632.877,-16.56 37.44,8.64 74.88,17.28 111.6,25.92 44.64,-5.76 88.56,-10.8 132.48,-16.56 17.28,3.6 35.28,7.2 53.28,10.8 13.68,-8.64 28.08,-16.56 41.76,-25.2 -10.8,-67.68 -21.6,-134.64 -33.12,-202.32 1.44,-53.28 -2.88,-110.88 -14.4,-174.24 -5.76,-7.2 -23.76,-55.44 -38.88,-64.08 -37.44,-21.6 -48.24,-25.2 -66.96,-30.96 -10.08,-20.16 -23.04,-34.56 -33.84,-55.44 -30.96,-4.32 -53.28,-40.32 -54.72,-52.56 0.72,-20.16 11.52,-68.4 12.96,-103.68 2.16,-50.4 -10.08,-102.96 -3.6,-153.36 4.32,-32.4 3.6,-46.8 -40.32,-65.52 -19.44,-7.92 -31.68,-54.72 -60.48,-66.96 12.24,-65.52 18,-131.04 8.64,-143.28 -3.6,-4.32 -5.76,-5.04 -6.48,-10.8 -2.88,-18.72 -8.64,-56.88 -5.76,-71.28 0.72,-8.64 -18.72,-19.44 -36,-22.32 -1.44,-28.8 -15.12,-33.84 -23.04,-45.36 6.48,-32.4 9.36,-72.72 30.24,-79.919 15.84,-32.403 30.97,-59.043 46.8,-74.161 13.68,0.719 44.64,-18.718 79.92,-31.679 21.6,-7.918 46.08,-24.481 57.6,-56.879 -9.36,-92.879 -13.68,-189.359 -23.76,-282.242 6.48,-38.157 15.84,-72.719 29.52,-97.2 -7.2,-47.519 -15.84,-95.042 -42.48,-137.519 41.04,-81.359 68.4,-180 92.16,-282.961" style="fill: rgb(35, 31, 32); fill-rule: evenodd; stroke: none;" id="path40"/>
      <path d="M 5932.08,3243.6 V 0 H 3862.8 c 2.88,134.641 2.88,290.16 22.32,296.641 10.8,3.597 19.44,12.242 29.52,18 58.32,110.879 78.48,268.558 87.84,419.043 -20.88,14.398 -41.76,28.796 -62.64,43.914 -23.04,80.644 -43.2,162.722 -69.84,241.922 -1.44,5.04 8.64,23.76 18.72,40.32 5.76,66.24 12.24,132.48 18,198.72 -1.43,55.44 -22.32,121.68 -54.72,194.4 -12.24,15.84 -24.48,31.68 -36.71,47.52 -17.29,62.64 -34.57,124.56 -51.13,187.2 -12.24,35.28 -5.04,62.64 -44.64,77.04 -38.88,15.12 -135.36,29.52 -142.56,62.64 -7.92,32.4 -5.04,85.68 -7.92,128.16 -9.36,55.44 -19.44,110.16 -28.8,165.6 -28.8,64.8 -32.4,129.6 -60.48,194.4 -28.08,70.56 -80.64,141.84 -108.72,213.12 -7.2,10.8 -24.48,19.44 -22.32,32.4 7.92,38.16 -2.16,110.88 22.32,113.76 70.56,9.36 141.84,-2.16 213.12,-3.6 5.76,20.88 5.04,50.4 25.2,51.84 30.96,1.44 63.36,23.04 95.76,43.92 95.76,9.36 190.8,19.44 286.56,29.52 39.6,16.56 51.12,59.76 84.24,69.84 128.16,37.44 79.92,77.76 120.96,108.72 34.56,23.76 68.41,46.8 102.96,69.84 33.84,1.44 68.4,2.16 102.96,3.6 18,0.72 31.68,-19.44 41.76,-31.68 76.32,0 136.8,0 213.84,0 142.56,10.08 255.6,49.68 393.84,76.32 0,30.96 18.72,79.2 36.72,78.48 102.96,-5.76 188.64,10.08 292.32,5.76 79.92,30.96 197.28,96.48 240.48,92.16 101.52,-10.8 209.52,-15.84 310.32,-25.92" style="fill: rgb(35, 31, 32); fill-rule: evenodd; stroke: none;" id="path42"/>
      <path d="m 0,2198.88 v 91.44 c 56.1602,-5.76 113.043,-10.8 168.48,-20.88 9.364,-1.44 19.442,-16.56 26.641,-22.32 69.84,-10.08 138.242,-12.96 230.399,-11.52 17.281,-1.44 34.558,-13.68 51.839,-30.24 -79.199,-0.72 -149.757,-14.4 -228.957,-15.84 C 168.48,2188.8 80.6406,2198.88 0,2198.88" style="fill: rgb(63, 70, 76); fill-rule: evenodd; stroke: none; fill-opacity: 0;" id="path44"/>
      <path d="m 1661.04,2288.16 c 61.2,-5.04 109.44,-28.8 131.76,-33.12 -48.96,-27.36 -109.44,-48.96 -158.4,-54.72 -24.48,-2.88 -48.96,-5.76 -73.44,-8.64 54,-20.88 100.8,-51.12 159.84,-58.32 -204.48,-40.32 -412.56,-7.92 -623.52,-20.16 42.48,23.04 85.68,46.08 110.16,78.48 -15.84,0.72 -82.08,-25.92 -97.92,-23.04 -126,20.16 -217.438,56.88 -370.079,59.76 53.278,18 108.719,36.72 162,54.72 45.36,0 82.079,-15.12 127.439,-15.12 218.16,0 414,20.16 632.16,20.16" style="fill: rgb(63, 70, 76); fill-rule: evenodd; stroke: none; fill-opacity: 0;" id="path46"/>
      <path d="m 686.879,2202.48 c 88.559,-18 176.402,-36.72 264.961,-54.72 49.68,-22.32 78.48,-41.76 85.68,-59.04 -46.079,-0.72 -71.282,-23.76 -117.36,-23.04 -140.398,0.72 -301.68,22.32 -437.039,14.4 -50.398,15.84 -99.359,34.56 -139.68,67.68 94.321,0 182.879,5.76 293.039,-8.64 18.719,5.76 48.958,26.64 47.52,38.16 -12.961,-0.72 -63.359,-8.64 -67.68,-2.88 -17.281,21.6 -109.441,52.56 -140.398,64.08 32.398,10.08 132.48,5.76 189.359,6.48 12.242,-12.24 19.442,-25.92 21.598,-42.48" style="fill: rgb(63, 70, 76); fill-rule: evenodd; stroke: none; fill-opacity: 0;" id="path48"/>
      <path d="m 1061.28,2244.96 -61.921,25.2 c 120.241,737.28 568.801,1245.6 1329.841,1428.48 54,-136.08 96.48,-260.64 150.48,-396.72 C 2160,3167.28 1839.6,3032.64 1519.2,2898 c -90.72,-193.68 -181.43,-387.36 -272.88,-581.04 -64.8,-23.76 -120.24,-48.24 -185.04,-72" style="fill: rgb(255, 255, 255); fill-rule: evenodd; stroke: none; fill-opacity: 0;" id="path50"/>
      <g id="g52">
        <g id="g54" clip-path="url(#clipPath58)">
          <path d="m 2012.4,2973.6 c -132.48,-105.12 -241.92,-239.76 -318.24,-392.4 l -464.4,231.84 c 110.88,219.6 267.84,412.56 458.64,565.92 l 324,-405.36" style="fill: url(#linearGradient64); fill-rule: nonzero; stroke: none;" id="path66"/>
        </g>
      </g>
      <path d="m 1229.76,2813.04 -48.96,13.68 4.32,5.04 62.64,-7.2 -18,-11.52" style="fill: rgb(204, 236, 205); fill-rule: evenodd; stroke: none; fill-opacity: 0;" id="path68"/>
      <g id="g70">
        <g id="g72" clip-path="url(#clipPath76)">
          <path d="m 1694.16,2581.2 c -52.56,-104.4 -90,-217.44 -109.44,-336.24 h -523.44 c 23.04,202.32 81.36,393.84 168.48,568.08 l 150.48,-74.88 v 0 c 38.16,-19.44 78.48,-1.44 79.2,23.76 1.44,32.4 -28.08,85.68 -1.44,114.48 25.2,27.36 79.92,30.24 125.28,2.88 30.96,-19.44 59.76,-60.48 54,-97.2 -8.64,-53.28 -63.36,-38.88 -91.44,-61.2 -27.36,-22.32 -9.36,-60.48 15.84,-74.16 l 132.48,-65.52" style="fill: url(#linearGradient82); fill-rule: nonzero; stroke: none;" id="path84"/>
        </g>
      </g>
      <path d="m 1688.4,3378.96 -41.76,6.48 6.48,4.32 47.52,-1.44 -12.24,-9.36" style="fill: rgb(204, 236, 205); fill-rule: evenodd; stroke: none; fill-opacity: 0;" id="path86"/>
      <path d="m 3245.04,3659.76 40.32,5.04 c 174.24,-102.24 395.28,-208.08 557.28,-354.24 l -344.16,-378.72 c -118.8,106.56 -260.64,193.68 -416.16,245.52 l 46.8,133.92 c 6.48,19.44 26.64,37.44 46.8,36.72 l 40.32,0.72 c 25.92,-24.48 2.88,-90.72 55.44,-91.44 37.44,-0.72 73.44,33.12 87.84,66.24 20.16,48.24 10.08,101.52 -20.88,122.4 -22.32,15.84 -50.4,-5.04 -77.76,-15.84 l -33.12,-2.16 c -25.2,-1.44 -48.24,33.84 -35.28,74.16 v 0 l 52.56,157.68" style="fill: rgb(235, 248, 254); fill-rule: evenodd; stroke: none; fill-opacity: 0;" id="path88"/>
      <path d="M 5914.08,2891.52 V 2732.4 c -175.68,-14.4 -329.76,-38.88 -506.88,-52.56 -61.2,-5.04 -146.16,0 -207.36,-5.04 23.04,-15.84 46.8,-31.68 69.84,-47.52 -177.84,10.08 -349.2,-5.76 -517.68,-29.52 -18,-2.16 -71.28,10.8 -87.12,18.72 14.4,0.72 78.48,10.08 92.16,15.12 37.44,14.4 67.68,30.96 103.68,48.96 100.8,-16.56 195.12,-25.2 295.2,-20.16 -47.52,10.8 -159.84,66.96 -190.8,83.52 52.56,30.24 141.84,42.48 194.4,73.44 95.77,17.28 218.16,17.28 322.56,29.52 18.72,2.16 46.08,19.44 63.36,22.32 126,1.44 243.36,20.16 368.64,22.32" style="fill: rgb(63, 70, 76); fill-rule: evenodd; stroke: none; fill-opacity: 0;" id="path90"/>
      <path d="m 5914.08,3072.24 v -119.52 c -95.04,-8.64 -203.76,-28.08 -296.64,-33.84 -28.08,-2.16 -37.44,7.92 -65.52,13.68 -47.52,8.64 -89.28,29.52 -133.92,46.08 -76.32,-22.32 -168.48,-24.48 -256.32,-32.4 -12.96,5.76 -25.2,10.08 -38.16,12.96 -54.72,13.68 -109.44,9.36 -164.88,11.52 124.56,25.2 246.96,48.96 370.81,61.2 87.83,-7.2 165.59,-2.88 253.43,-10.8 31.68,-2.16 105.84,-12.96 137.52,-15.84 -16.56,12.24 -66.24,24.48 -97.2,30.96 -20.16,4.32 -25.2,20.16 -41.76,30.24 118.8,11.52 225.36,7.92 332.64,5.76" style="fill: rgb(63, 70, 76); fill-rule: evenodd; stroke: none; fill-opacity: 0;" id="path92"/>
      <path d="m 3414.96,2599.92 c 120.96,6.48 280.8,-15.12 445.68,-41.04 -7.92,15.12 -15.84,30.24 -23.04,45.36 179.28,-20.16 349.92,-15.84 518.4,-8.64 58.32,57.6 214.56,108.72 436.32,155.52 -110.88,4.32 -218.16,9.36 -367.2,-8.64 1.44,7.2 -5.76,25.2 -12.96,26.64 -101.52,20.16 -190.8,-4.32 -294.48,-12.96 -150.48,-25.92 -300.24,-52.56 -450,-78.48 18,-19.44 36.72,-39.6 54.72,-59.76 -41.76,15.12 -84.96,28.8 -137.52,32.4 -79.2,-12.96 -123.84,-31.68 -169.92,-50.4" style="fill: rgb(63, 70, 76); fill-rule: evenodd; stroke: none; fill-opacity: 0;" id="path94"/>
      <path d="m 4410.72,2832.48 c 139.68,-8.64 275.04,-6.48 421.92,-33.12 29.52,7.92 41.04,18.72 87.84,23.76 46.8,5.04 126.72,5.76 190.08,8.64 -83.52,48.24 -345.6,22.32 -329.76,46.8 36.72,14.4 73.44,28.08 110.16,42.48 -103.68,-10.08 -218.16,-10.08 -295.2,-39.6 -62.64,-23.76 -129.6,-28.8 -185.04,-48.96" style="fill: rgb(63, 70, 76); fill-rule: evenodd; stroke: none; fill-opacity: 0;" id="path96"/>
      <path d="m 3782.88,2622.96 c -18,5.76 -36.72,10.8 -55.44,16.56 -156.24,262.08 -396,439.2 -645.12,537.84 12.97,-1.44 26.64,-3.6 39.6,-5.04 257.76,-53.28 516.24,-106.56 774,-160.56 -37.44,-128.88 -74.88,-258.48 -113.04,-388.8" style="fill: rgb(255, 255, 255); fill-rule: evenodd; stroke: none; fill-opacity: 0;" id="path98"/>
      <g id="g100">
        <g id="g102" clip-path="url(#clipPath106)">
          <path d="m 3285.36,3664.8 c 226.8,-75.6 432,-197.28 605.52,-354.24 L 3542.4,2926.8 c -120.24,108.72 -262.8,192.96 -420.48,245.52 l 46.08,138.96 c 9.36,28.08 44.64,51.84 70.56,27.36 26.64,-24.48 20.16,-80.64 74.16,-81.36 37.44,-0.72 74.16,33.12 88.56,66.96 20.88,48.96 10.08,102.24 -20.88,123.84 -32.4,22.32 -80.64,-14.4 -113.04,-18 -24.48,-2.88 -48.24,34.56 -34.56,74.88 h -0.72 l 53.28,159.84" style="fill: url(#linearGradient112); fill-rule: nonzero; stroke: none;" id="path114"/>
        </g>
      </g>
      <g id="g116">
        <g id="g118" clip-path="url(#clipPath122)">
          <path d="m 2910.96,4713.12 c 166.32,-5.04 326.88,-34.56 478.08,-84.96 l -52.56,-159.84 v 0 c -13.68,-41.04 10.08,-77.76 35.28,-74.88 31.68,3.6 80.64,40.32 112.32,18 30.96,-21.6 41.76,-75.6 20.88,-123.84 -14.4,-33.84 -51.12,-68.4 -88.56,-67.68 -53.28,1.44 -47.52,57.6 -73.44,82.08 -26.64,24.48 -61.92,0 -71.28,-27.36 v 0 l -46.08,-138.96 c -105.12,35.28 -216.72,55.44 -331.92,59.04 l 5.04,146.88 c 0.72,29.52 -25.2,64.08 -57.59,50.4 -33.85,-14.4 -46.81,-69.12 -97.93,-51.12 -35.28,12.24 -57.6,56.88 -59.76,93.6 -2.16,53.28 26.64,100.08 62.64,109.44 38.16,9.36 70.56,-41.76 99.36,-56.16 20.88,-10.8 54,11.52 59.76,49.68 l 5.76,175.68" style="fill: url(#linearGradient128); fill-rule: nonzero; stroke: none;" id="path130"/>
        </g>
      </g>
      <g id="g132">
        <g id="g134" clip-path="url(#clipPath138)">
          <path d="m 3640.32,4610.88 c -12.24,5.76 -10.8,20.16 -2.16,25.92 0,-4.32 10.08,-4.32 16.56,-3.6 15.12,2.16 38.16,3.6 56.16,-1.44 28.8,-7.92 39.6,-29.52 33.84,-59.76 -3.59,-20.16 -13.68,-48.24 -11.52,-59.04 2.88,-11.52 12.96,-25.92 28.08,-38.16 33.12,-25.2 42.48,-50.4 41.04,-59.04 -14.4,-72 -50.4,-159.12 -61.19,-209.52 -3.61,-18.72 -8.65,-38.16 -8.65,-58.32 -2.16,-99.36 -18,-211.68 -19.44,-310.32 0,-11.52 5.04,-23.04 11.52,-30.96 20.88,-26.64 24.48,-56.16 24.48,-85.68 -0.72,-46.8 -8.64,-100.08 -7.91,-146.88 0,-7.2 3.59,-19.44 0,-23.76 0,-8.64 0,-12.96 3.59,-20.88 3.6,-7.92 5.76,-21.6 -5.04,-23.76 -26.64,-5.04 -36,-23.04 -55.44,-21.6 l -21.6,0.72 c -2.88,0 -18,10.08 -21.6,13.68 -5.04,5.04 1.44,12.24 4.32,10.8 6.48,-2.88 18.72,-2.88 23.04,0.72 7.2,4.32 14.4,12.96 21.6,15.84 14.4,6.48 15.12,32.4 14.4,41.04 -2.88,57.6 -10.08,132.48 -23.76,191.52 -3.6,15.84 -16.56,25.92 -20.88,41.76 -2.16,7.92 -0.72,15.12 -3.6,23.04 -29.52,74.88 -25.92,173.52 -46.08,252.72 -1.44,-15.12 1.44,-28.8 4.32,-46.8 -33.84,-43.92 -81.36,-81.36 -113.04,-123.84 -4.32,-5.76 -9.36,-11.52 -9.36,-19.44 -1.44,-19.44 0.72,-33.12 -4.32,-55.44 -14.4,-58.32 -43.2,-107.28 -51.12,-166.32 -1.44,-12.96 0,-19.44 1.44,-30.24 1.44,-12.24 -11.52,-23.04 -18,-20.16 l -88.56,35.28 c -6.48,2.88 -3.6,12.96 0,11.52 8.64,-1.44 25.2,-5.04 34.56,-3.6 18.72,2.16 32.4,5.76 36.72,20.16 12.24,46.08 24.48,142.56 31.68,211.68 1.44,18 -2.16,38.16 6.48,55.44 26.64,51.84 60.48,105.12 92.16,154.08 28.09,43.2 39.6,72.72 46.8,97.2 3.6,12.24 2.88,24.48 5.04,36.72 20.16,5.76 42.48,7.2 63.36,13.68 7.92,2.16 17.28,5.76 23.76,11.52 30.96,30.96 60.48,65.52 87.84,99.36 -28.08,-27.36 -56.88,-58.32 -87.12,-84.24 -10.08,-8.64 -21.59,-17.28 -34.56,-19.44 -57.6,-11.52 -160.56,-36 -166.32,-40.32 -6.48,-5.76 -15.12,-7.2 -21.6,-9.36 -2.16,-0.72 -6.48,1.44 -10.08,0.72 -3.6,-1.44 -7.92,1.44 -10.8,2.88 -2.88,-0.72 -7.92,0 -9.36,0.72 -8.64,1.44 -11.52,5.04 -19.44,7.2 -2.88,0.72 -6.48,2.16 -7.92,3.6 -2.88,3.6 2.16,7.92 11.52,5.76 3.6,-0.72 7.2,-2.16 10.8,-2.88 4.32,-1.44 8.64,0.72 12.96,0 2.88,0 5.04,6.48 12.96,12.24 4.32,2.88 9.36,7.92 10.8,11.52 -6.48,0 -9.36,0.72 -15.12,2.16 -5.76,-3.6 -12.24,-2.16 -18,0 -2.88,0.72 -2.88,5.04 -0.72,5.04 9.36,1.44 18,8.64 23.04,8.64 9.36,0 23.76,1.44 29.52,-0.72 7.2,-2.16 14.4,-6.48 22.32,-7.92 41.76,10.08 83.52,33.84 125.28,44.64 5.76,1.44 8.64,5.04 11.52,8.64 27.36,29.52 56.16,57.6 84.24,86.4 -29.52,-26.64 -59.04,-53.28 -88.56,-80.64 -3.6,-3.6 -8.64,-7.2 -14.4,-8.64 -5.76,-1.44 -12.96,-3.6 -18,-5.04 5.76,34.56 14.4,71.28 23.04,104.4 -8.64,-23.04 -16.56,-45.36 -23.76,-70.56 -9.36,-7.92 -18,-17.28 -27.36,-25.2 -5.76,-4.32 -10.8,-7.92 -15.84,-8.64 -15.84,-3.6 -30.24,-8.64 -45.36,-12.96 0.72,0.72 0.72,2.16 1.44,2.88 5.76,14.4 9.36,28.8 10.08,42.48 l 12.24,4.32 c 6.48,2.16 12.96,7.2 15.84,12.24 23.76,39.6 48.24,81.36 73.44,118.8 6.48,9.36 12.96,17.28 23.76,20.16 7.2,2.16 15.12,2.16 22.32,4.32 0,2.16 -2.16,6.48 -1.44,8.64 13.68,2.16 30.24,2.16 42.48,9.36 6.48,2.88 8.64,12.24 10.08,20.16 -1.44,-6.48 -5.04,-15.12 -11.52,-17.28 -15.84,-5.76 -32.4,-5.04 -48.96,-5.76 -5.76,-0.72 -13.68,1.44 -15.12,7.2 -7.92,30.96 -5.04,66.24 2.16,98.64" style="fill: url(#linearGradient146); fill-rule: nonzero; stroke: none;" id="path148"/>
        </g>
      </g>
      <g id="g150">
        <g id="g152" clip-path="url(#clipPath156)">
          <path d="m 2666.16,4792.32 c 8.64,2.88 9.36,19.44 -2.16,27.36 0.72,-4.32 -7.92,-7.2 -18.71,0 -20.89,15.84 -55.45,23.04 -77.05,10.08 -33.12,-21.6 -28.8,-65.52 -24.48,-92.88 3.6,-24.48 -0.72,-38.88 -15.12,-48.24 -12.24,-8.64 -19.44,-7.2 -33.84,-12.24 -11.52,-4.32 -22.32,-15.12 -26.64,-32.4 -24.48,-93.6 -27.36,-187.2 -37.44,-282.24 -3.6,-33.84 -5.76,-71.28 -6.48,-105.12 -1.44,-82.08 8.64,-134.64 7.92,-217.44 0,-8.64 -11.52,-23.04 -21.6,-30.96 -29.52,-21.6 -64.08,-95.76 -75.6,-131.76 -8.64,-28.08 -8.64,-55.44 -23.76,-80.64 -6.48,-11.52 -22.32,-17.28 -17.28,-28.8 5.04,-13.68 18.72,-15.12 32.4,-36.72 7.92,-10.8 24.48,-25.92 33.12,-23.76 l 26.64,5.76 c 9.36,1.44 10.8,10.08 7.2,12.24 -2.15,0.72 -11.52,1.44 -17.28,7.2 -9.36,7.92 -15.12,19.44 -21.6,30.24 -5.76,11.52 -7.92,23.76 -4.32,33.84 20.16,48.24 64.08,119.52 99.36,162.72 11.52,14.4 25.92,21.6 38.16,36.72 10.08,12.96 11.52,23.76 19.44,44.64 21.6,54 16.56,115.92 31.68,171.36 0,0.72 6.48,18.72 7.92,25.92 0,-8.64 -0.72,-19.44 -2.16,-26.64 2.16,-3.6 5.76,-12.96 7.2,-15.84 25.2,-55.44 53.28,-110.16 88.56,-165.6 5.05,-8.64 8.64,-20.88 5.76,-30.24 -9.36,-35.28 -4.32,-68.4 7.2,-100.8 10.8,-38.16 22.32,-71.28 31.68,-110.16 1.44,-7.2 -1.44,-16.56 -2.16,-23.04 -1.44,-7.2 0,-15.12 7.92,-15.12 l 100.08,0.72 c 10.08,0 10.8,12.24 5.04,12.24 -9.36,0.72 -18.72,6.48 -28.8,10.8 -15.83,5.76 -27.36,10.8 -39.6,21.6 -6.48,5.76 -8.64,15.84 -10.08,23.76 -9.36,56.88 -15.12,118.08 -8.64,185.76 1.44,14.4 1.44,29.52 -5.76,51.84 -9.36,28.08 -16.56,56.88 -26.64,84.24 -24.48,69.12 -77.04,195.12 -75.6,205.92 0.72,7.92 5.76,23.04 7.2,30.24 -25.2,13.68 -54.72,24.48 -79.92,41.76 -7.2,4.32 -12.96,11.52 -15.12,19.44 -12.96,46.08 -22.32,92.88 -29.52,137.52 3.6,-15.12 7.2,-30.24 11.52,-46.08 7.2,-28.8 15.12,-58.32 24.48,-86.4 2.16,-6.48 7.92,-12.24 12.96,-15.84 38.16,-27.36 87.12,-46.08 126.72,-69.84 10.8,-6.48 18.72,-21.6 25.2,-25.2 7.92,-3.6 12.96,-4.32 21.6,-4.32 4.32,0 8.64,0 13.68,0 2.16,0 5.76,-1.44 8.64,-1.44 7.92,0 14.4,1.44 21.6,2.88 3.6,0.72 0.72,7.2 -5.04,8.64 -5.04,1.44 -7.92,0.72 -12.24,0.72 -3.6,1.44 -9.36,4.32 -14.4,5.04 -3.6,2.16 -8.64,4.32 -11.52,7.2 -5.04,5.76 -5.04,12.24 -5.04,16.56 5.04,0 9.36,0.72 13.68,2.16 4.32,-0.72 9.36,-0.72 12.24,1.44 2.88,1.44 3.6,4.32 1.44,5.76 -1.44,0.72 -5.04,1.44 -10.08,3.6 -3.6,0.72 -7.2,3.6 -10.08,4.32 -7.92,2.16 -30.96,0.72 -35.28,3.6 -20.16,15.84 -44.64,34.56 -65.52,49.68 -8.64,6.48 -15.12,9.36 -24.48,15.84 -7.92,5.76 -8.64,20.16 -12.23,41.76 -2.89,15.84 -5.77,31.68 -8.65,48.24 -2.88,16.56 -5.76,32.4 -8.64,48.96 10.08,-31.68 15.12,-62.64 22.32,-94.32 3.6,-12.24 6.48,-36 10.8,-38.88 10.8,-8.64 24.48,-15.12 34.56,-24.48 6.48,36 10.08,80.64 14.4,116.64 0.72,-24.48 1.44,-55.44 -2.88,-81.36 12.25,-23.04 18,-34.56 29.52,-43.92 0,20.16 5.76,41.04 14.4,59.04 -5.76,33.84 -14.4,94.32 -22.32,127.44 -2.16,10.08 -6.48,23.76 -13.68,30.96 -10.08,10.8 -20.16,12.96 -30.96,23.04 1.44,3.6 7.92,10.08 9.36,14.4 -8.64,2.88 -23.76,8.64 -32.4,16.56 13.68,-5.04 27.36,-10.08 42.48,-12.24 8.64,-1.44 13.68,3.6 15.85,10.08 7.19,26.64 13.67,48.24 19.43,74.88 0.72,5.76 2.16,16.56 1.44,21.6" style="fill: url(#linearGradient164); fill-rule: nonzero; stroke: none;" id="path166"/>
        </g>
      </g>
      <g id="g168">
        <g id="g170" clip-path="url(#clipPath174)">
          <path d="m 3778.56,3186.72 c -28.8,-31.68 -74.16,-29.52 -84.24,-5.76 -12.96,29.52 -4.32,90 -39.6,106.56 -33.84,16.56 -85.68,-0.72 -118.08,-42.48 -22.32,-28.8 -34.56,-77.76 -15.12,-110.16 27.36,-46.08 72.72,-12.96 107.28,-23.76 33.84,-10.8 31.68,-54 12.24,-75.6 L 3542.4,2926.8 c 95.76,-87.12 177.84,-189.36 240.48,-303.84 l 517.68,124.56 c -96.48,214.56 -236.88,406.8 -409.68,563.04 l -112.32,-123.84 v 0" style="fill: url(#linearGradient180); fill-rule: nonzero; stroke: none;" id="path182"/>
        </g>
      </g>
      <path d="m 3542.4,2926.8 h -45.36 l -2.88,2.16 38.88,5.76 9.36,-7.92" style="fill: rgb(204, 236, 205); fill-rule: evenodd; stroke: none; fill-opacity: 0;" id="path184"/>
      <path d="m 2756.88,3522.24 v 0 l -33.84,-8.64 c -3.6,-0.72 -11.52,0 -15.84,1.44 -25.2,12.24 -53.28,52.56 -84.96,56.16 6.48,4.32 12.96,7.2 20.16,9.36 38.16,9.36 70.56,-41.76 99.36,-56.16 5.04,-2.16 10.08,-2.88 15.12,-2.16 z m -109.44,-146.88 c 20.88,12.24 33.84,37.44 55.44,46.8 3.6,1.44 7.2,2.16 10.08,2.88 l 28.08,5.04 c -1.44,0 -2.88,-0.72 -3.6,-1.44 -31.68,-12.96 -45.36,-62.64 -90,-53.28 z m 102.24,56.16 v 0 0 z" style="fill: rgb(255, 255, 255); fill-rule: evenodd; stroke: none; fill-opacity: 0;" id="path186"/>
      <g id="g188">
        <g id="g190" clip-path="url(#clipPath194)">
          <path d="m 2749.68,3751.2 c 19.44,0 38.16,-0.72 57.6,-1.44 l -5.76,-175.68 c -5.76,-38.16 -38.88,-60.48 -59.76,-49.68 -28.8,14.4 -61.2,65.52 -99.36,56.16 -36.72,-9.36 -64.8,-56.16 -62.64,-109.44 2.16,-36 24.48,-81.36 59.76,-93.6 50.4,-17.28 64.08,37.44 97.92,51.12 32.4,13.68 58.32,-20.88 57.6,-50.4 L 2790,3232.08 c -13.68,0 -26.64,0.72 -40.32,0.72 -158.4,0 -310.32,-31.68 -448.55,-88.56 l -197.29,479.52 c 199.44,82.08 417.6,127.44 645.84,127.44" style="fill: url(#linearGradient200); fill-rule: nonzero; stroke: none;" id="path202"/>
        </g>
      </g>
      <g id="g204">
        <g id="g206" clip-path="url(#clipPath210)">
          <path d="m 2301.13,3144.24 c -104.41,-43.2 -201.61,-100.8 -288.73,-170.64 l -91.44,115.2 c -18.72,22.32 -60.48,32.4 -76.32,0.72 -16.56,-32.4 8.64,-82.8 -41.04,-102.24 -35.28,-14.4 -81.36,5.76 -106.56,32.4 -36,38.16 -44.64,92.16 -23.04,123.12 22.32,32.4 80.64,14.4 111.6,22.32 23.04,5.04 33.12,43.2 12.96,76.32 l -110.16,137.52 c 125.28,100.08 264.96,182.88 415.44,244.8 l 68.4,-165.6 c 18.72,-31.68 55.44,-41.04 70.56,-23.76 22.32,23.76 34.56,82.8 73.44,87.12 37.44,3.6 85.68,-29.52 97.2,-79.92 8.64,-40.32 -0.72,-88.56 -23.76,-109.44 -39.6,-35.28 -72.72,12.96 -109.44,14.4 -35.28,1.44 -46.08,-39.6 -34.56,-66.96 v 0 l 55.45,-135.36 v 0" style="fill: url(#linearGradient216); fill-rule: nonzero; stroke: none;" id="path218"/>
        </g>
      </g>
    </g>
  </g>
</svg>