<?xml version="1.0" encoding="UTF-8" standalone="no"?>
<svg
   xmlns:dc="http://purl.org/dc/elements/1.1/"
   xmlns:cc="http://creativecommons.org/ns#"
   xmlns:rdf="http://www.w3.org/1999/02/22-rdf-syntax-ns#"
   xmlns:svg="http://www.w3.org/2000/svg"
   xmlns="http://www.w3.org/2000/svg"
   xmlns:sodipodi="http://sodipodi.sourceforge.net/DTD/sodipodi-0.dtd"
   xmlns:inkscape="http://www.inkscape.org/namespaces/inkscape"
   version="1.1"
   id="svg2"
   xml:space="preserve"
   width="5751.9331"
   height="3688.6133"
   viewBox="0 0 5751.9331 3688.6133"
   sodipodi:docname="1645482871-vector.eps"><metadata
     id="metadata8"><rdf:RDF><cc:Work
         rdf:about=""><dc:format>image/svg+xml</dc:format><dc:type
           rdf:resource="http://purl.org/dc/dcmitype/StillImage" /></cc:Work></rdf:RDF></metadata><defs
     id="defs6"><linearGradient
       x1="0"
       y1="0"
       x2="1"
       y2="0"
       gradientUnits="userSpaceOnUse"
       gradientTransform="matrix(-0.0011,-25172.6,-43179.5,0.00189,43159.5,33564.7)"
       spreadMethod="pad"
       id="linearGradient18"><stop
         style="stop-opacity:1;stop-color:#54a7aa"
         offset="0"
         id="stop14" /><stop
         style="stop-opacity:1;stop-color:#fff766"
         offset="1"
         id="stop16" /></linearGradient></defs><sodipodi:namedview
     pagecolor="#ffffff"
     bordercolor="#666666"
     borderopacity="1"
     objecttolerance="10"
     gridtolerance="10"
     guidetolerance="10"
     inkscape:pageopacity="0"
     inkscape:pageshadow="2"
     inkscape:window-width="640"
     inkscape:window-height="480"
     id="namedview4" /><g
     id="g10"
     inkscape:groupmode="layer"
     inkscape:label="ink_ext_XXXXXX"
     transform="matrix(1.3333333,0,0,-1.3333333,0,3688.6133)"><g
       id="g12"
       transform="scale(0.1)"><path
         d="M 0,0 H 43139.5 V 27664.6 H 0 Z"
         style="fill:url(#linearGradient18);fill-opacity:1;fill-rule:nonzero;stroke:none"
         id="path20" /><path
         d="m 0,11090.2 h 9190.8 l 383.76,-203.1 -14.4,-505.4 61.92,-310.3 -599.04,-2178.04 188.64,-564.48 -97.92,-180 79.92,-412.56 L 9219.6,5976 9108,5718.24 9305.28,3448.8 9032.4,3168 9167.76,2296.8 8802,0 H 0 v 11090.2"
         style="fill:#231f20;fill-opacity:1;fill-rule:evenodd;stroke:none"
         id="path22" /><path
         d="m 5733.36,16383.6 c -167.76,-49 -266.4,-66.2 -346.32,-129.6 -216.72,-170.6 -268.56,-752.4 -349.92,-1266.5 13.68,0 27.36,0.7 40.32,2.2 l 1032.48,58.3 c 37.44,139.7 86.4,276.5 122.4,416.2 -91.44,84.2 -188.64,151.2 -296.64,187.2 125.28,3.6 264.24,-63.4 405.36,-140.4 341.28,-177.2 527.04,-317.6 891.36,-440.7 108.72,-36.7 257.76,227.5 256.32,337 -6.48,370.8 -20.16,708.5 -76.32,1083.6 51.84,56.9 103.68,113.7 155.52,171.3 -36.72,40.4 -120.24,69.9 -168.48,49.7 -110.88,-46.8 -223.92,-172.8 -236.88,-236.9 5.04,-288 -61.92,-534.2 -56.88,-822.2 66.24,-117.4 90.72,-234 109.44,-350.6 -53.28,113.7 -100.8,275 -154.08,327.6 -166.32,136.8 -291.6,216 -456.48,354.2 -58.32,49.7 -80.64,59.8 -146.88,99.4 -110.16,66.2 -233.28,106.5 -350.64,159.8 125.28,-5 190.8,-10.8 316.08,-15.8 47.52,15.8 159.84,399.6 126.72,707.7 36.72,5.1 72.72,86.4 63.36,161.3 -108,-34.6 -181.44,41.8 -306,57.6 -140.4,18 -380.88,38.2 -452.16,-95.8 -42.48,-3.6 -102.96,-27.3 -133.92,-164.1 -30.96,-137.5 7.92,-321.9 12.24,-510.5 z m -787.68,-1867.7 c -24.48,-118.8 -49.68,-241.9 -69.84,-333.3 171.36,38.1 354.96,126 526.32,95.7 -185.76,-47.5 -380.16,-86.4 -529.2,-171.3 -5.76,-108.8 36.72,-346.4 125.28,-409.7 548.64,-398.2 1053.36,-558 1650.24,-878.4 -95.04,-0.7 -167.76,-34.6 -233.28,-77.8 -36,-395.3 -68.4,-840.2 -103.68,-1235.5 23.04,-15.1 64.8,-47.5 106.56,-49 3.6,-148.3 -68.4,-180.7 -49.68,-366.4 293.76,0 588.24,0 882.72,0 33.84,7.9 50.4,95 23.04,104.4 -103.68,38.8 -249.84,43.9 -307.44,95.7 -77.76,69.9 -136.8,105.9 -207.36,184.3 70.56,-2.8 150.48,34.6 207.36,41.8 22.32,474.5 40.32,862.6 129.6,1337.8 25.2,133.9 64.08,339.1 -46.08,441.3 -329.76,306.7 -722.16,578.9 -1087.2,842.4 46.8,0 93.6,0 140.4,0 -13.68,189.4 -56.16,378.7 -51.12,567.4 l -987.12,-187.9 c -32.4,-4.4 -72.72,-4.4 -119.52,-1.5"
         style="fill:#231f20;fill-opacity:1;fill-rule:evenodd;stroke:none"
         id="path24" /><path
         d="m 5135.76,13523 c 26.64,-195.1 54,-390.2 81.36,-586 119.52,-21.6 215.28,-83.6 299.52,-163.5 -126,49 -178.56,62.7 -281.52,65.5 -64.08,-51.8 -129.6,-103.6 -196.56,-155.5 111.6,-171.3 226.08,-336.2 342.72,-499.7 118.8,80.7 239.76,164.9 359.28,261.4 95.04,76.3 117.36,198 118.8,297.4 2.16,125.2 -6.48,250.5 -10.08,376.5 -237.6,134.7 -475.92,269.3 -713.52,403.9 z m -571.68,-1199.5 c -168.48,-126.7 -335.52,-253.4 -491.76,-380.9 -4.32,-45.3 -5.04,-90.7 13.68,-136.8 -54,-30.2 -114.48,-25.2 -167.76,-147.6 27.36,-92.8 102.24,-204.4 159.84,-271.4 23.04,2.9 66.96,18 90,-2.9 68.4,-95 89.28,-231.1 169.2,-293.7 125.28,0 250.56,0 375.84,0 5.76,38.8 38.88,84.9 16.56,117.3 -45.36,67.7 -180.72,61.9 -195.12,147.6 -14.4,85.7 15.84,178.6 0,267.9 46.08,-57.6 92.16,-2.9 138.96,2.8 67.68,75.6 140.4,143.3 216.72,206.7 -128.88,190.1 -247.68,376.5 -326.16,491"
         style="fill:#231f20;fill-opacity:1;fill-rule:evenodd;stroke:none"
         id="path26" /><path
         d="m 4009.68,15359.8 c 22.32,78.4 219.6,280 185.04,325.4 -123.12,162.7 -218.88,310.3 -342,473.8 -64.8,91.4 28.08,101.5 -75.6,236.8 -107.28,-160.5 -393.12,-162.7 -562.32,-325.4 -70.56,-67.7 -84.96,-153.4 -72.72,-230.4 -20.16,-44.6 -35.28,-79.2 -33.12,-127.4 7.92,-183.6 119.52,-324 324,-417.6 -87.84,-17.3 -194.4,-80.7 -218.88,-154.1 -245.52,-741.6 -697.68,-1273 -913.68,-1872.7 144,-94.4 358.56,-70.6 527.04,-104.4 -165.6,-24.5 -331.2,-24.5 -496.8,60.4 -51.12,-237.6 -33.84,-419 108.72,-727.2 105.84,-258.4 185.76,-516.9 254.88,-775.4 70.56,-120.2 146.88,-240.5 133.2,-375.1 -59.04,131 -88.56,230.4 -188.64,292.3 -371.52,92.9 -784.8,149 -1156.32,241.9 -19.44,5.1 -34.56,-5 -54.72,-4.3 -125.28,4.3 -164.16,93.6 -352.08,101.5 -80.637,-190.1 -106.559,-395.3 -187.2,-585.3 -10.078,-121.7 82.083,-230.4 157.68,-302.4 89.28,0 144,0 232.56,0 2.88,25.2 32.4,55.4 8.64,113 -32.4,43.9 -103.68,92.2 -136.08,136.8 74.88,5 105.12,127.4 162,163.4 3.6,-56.1 7.92,-113 11.52,-169.2 465.12,-47.5 918.72,-141.1 1369.44,-244 161.28,0 322.56,0 484.56,0 81.36,68.4 179.28,172.8 181.44,329 5.76,373 -64.8,743 -96.48,1114.6 -162,56.1 -323.28,113 -484.56,169.2 294.48,-60.5 572.4,-130.4 866.88,-190.1 222.48,-44.7 553.68,-72 775.44,-116.7 75.6,-69.8 448.56,-702 730.8,-1037.5 60.48,0.7 116.64,23.8 169.92,51.9 10.8,-35.3 -27.36,-41.8 -51.12,-63.4 -19.44,-110.2 12.24,-157.7 39.6,-194.4 10.08,-13.7 0,-41.8 5.04,-62.6 295.2,0 572.4,0 866.88,0 33.12,17.2 36.72,96.4 23.76,123.1 -129.6,43.9 -259.92,58.3 -374.4,133.2 -92.16,59 -145.44,144 -213.84,228.9 37.44,24.5 32.4,83.6 36,108 -246.24,347.1 -490.32,672.5 -719.28,1031.8 -81.36,128.9 -195.84,209.5 -350.64,254.2 -362.88,104.4 -727.2,202.3 -1090.8,303.1 173.52,553.7 449.28,809.3 536.4,1208.9 -108,6.4 -244.08,-46.1 -366.48,-95.1 116.64,97.2 234,155.5 351.36,169.9 342.72,-44.6 836.64,-156.2 1029.6,-133.9 359.28,69.1 718.56,137.5 1077.84,206.7 97.2,64 71.28,286.5 0,326.8 -354.96,-20.1 -710.64,-40.3 -1065.6,-60.4 -310.32,-25.2 -879.12,208.8 -1380.96,266.4 123.12,14.4 223.2,7.9 352.8,-11.6 -9.36,40.4 20.88,146.9 -18.72,209.6"
         style="fill:#231f20;fill-opacity:1;fill-rule:evenodd;stroke:none"
         id="path28" /><path
         d="m 6890.4,13526.6 c -16.56,114.5 -2.16,430.6 54.72,635.8 162.72,56.9 256.32,14.4 378,49 5.76,30.2 10.08,66.2 39.6,77.7 345.6,79.2 636.48,231.9 981.36,311.1 133.2,66.2 658.08,-15.9 554.4,125.2 -59.76,-81.3 -292.32,-19.4 -425.52,-49.6 -141.12,110.1 -219.6,220.3 -236.88,413.2 43.92,152 202.32,195.9 363.6,236.2 -153.36,31.7 -287.28,1.4 -399.6,-90.7 66.24,391.7 295.2,848.1 345.6,1271.5 -79.2,18.7 -136.8,77 -216,95 145.44,230.4 223.2,365.8 312.48,618.5 26.64,7.9 156.96,47.5 183.6,54 285.12,71.3 597.6,70.6 848.16,36 101.52,-13.7 169.92,-55.4 258.48,-71.3 -77.76,-63.3 -149.76,-125.2 -181.44,-207.3 77.76,-271.5 166.32,-428.4 290.14,-558.7 -65.5,-512.7 -406.78,-1082.2 -471.58,-1782.8 -122.4,208.1 -169.92,329.8 -260.64,435.6 102.96,-266.4 193.68,-509.7 236.16,-671.7 54.72,-217.5 -49.68,-427.7 -127.44,-436.3 -687.6,-77.8 -1392.48,-77.8 -1904.4,-414.8 -51.84,64.1 -90.72,238.4 -113.76,370.8 -16.56,-105.8 -4.32,-176.4 3.6,-226.8 -7.92,-29.5 -76.32,-79.2 -76.32,-110.1 5.76,-79.2 32.4,-158.4 18,-236.2 -11.52,-61.9 -56.16,-110.9 -90.72,-163.4 -121.68,96.5 -242.64,193.7 -363.6,290.1"
         style="fill:#231f20;fill-opacity:1;fill-rule:evenodd;stroke:none"
         id="path30" /><path
         d="m 8457.12,13795.9 c 416.16,85 609.84,131.8 766.08,149.1 -91.44,-301 -178.56,-807.2 -277.92,-926.7 -295.92,-356.4 -640.8,-670.3 -941.04,-1023.8 -113.04,-132.5 -105.12,-222.5 -203.04,-367.2 -195.84,70.5 -417.6,138.9 -560.88,331.9 442.8,362.2 687.6,939.6 1144.08,1327.7 25.92,-72.7 20.88,-153.4 24.48,-221.1 69.12,137.6 31.68,487.5 48.24,730.1"
         style="fill:#231f20;fill-opacity:1;fill-rule:evenodd;stroke:none"
         id="path32" /><path
         d="m 7320.24,11949.8 c -74.88,-79.9 -146.16,-165.6 -196.56,-294.4 72,-110.2 144,-190.1 216.72,-239.1 28.8,10.8 57.6,22.3 87.12,33.1 79.92,-180 152.64,-327.6 195.84,-359.2 147.6,0 294.48,0 441.36,0 6.48,43.9 34.56,90 1.44,125.2 -48.96,50.4 -161.28,31 -169.92,103 -33.12,170.6 -65.52,341.3 -97.92,512.6 -159.84,39.6 -318.96,79.2 -478.08,118.8"
         style="fill:#231f20;fill-opacity:1;fill-rule:evenodd;stroke:none"
         id="path34" /><path
         d="m 7091.28,18093.6 c 155.52,-7.2 307.44,-23.8 448.56,-72.7 63.36,-22.3 128.88,-44.7 196.56,-67.7 -178.56,-232.6 -336.24,-416.9 -499.68,-680.4 v -0.7 c -105.84,10.8 -208.08,28.1 -302.4,58.3 -177.84,56.2 -376.56,174.2 -436.32,351.4 -56.16,167 25.92,295.9 89.28,425.5 78.48,8.6 185.76,4.3 278.64,-3.6 -97.2,54.7 -214.56,51.1 -311.04,67.7 220.32,393.8 534.24,805.6 882.72,1257.1 58.32,75.6 117.36,294.5 183.6,362.1 130.32,133.2 321.84,280.1 506.16,254.2 498.24,-69.8 892.8,-339.8 1361.52,-521.3 62.64,342.7 126,635.8 196.56,976.3 26.64,130.4 141.12,190.1 265.68,267.2 71.98,45.3 298.08,85.6 372.98,13.6 -114.5,-72.7 -229,-145.4 -342.74,-218.1 15.12,-425.5 -12.24,-775.5 -1.44,-1201.7 2.88,-118.8 -261.36,-343.4 -366.48,-337.7 -381.6,20.9 -1013.04,359.3 -1388.16,378 107.28,-37.4 209.52,-59.7 293.04,-106.5 -230.4,-505.5 -587.52,-869.8 -704.16,-1239.9 l -1.44,-0.7 c -12.96,-17.3 -26.64,-35.3 -39.6,-51.8 -231.12,69.8 -427.68,153.3 -681.84,91.4 z m 963.36,-253.4 c -120.24,-191.6 -206.64,-329.1 -329.04,-535.7 216.72,-31 361.44,-55.5 617.04,-83.5 -92.88,-23.8 -181.44,-28.8 -274.32,-52.6 -196.56,-172.1 -388.08,-470.9 -584.64,-690.5 32.4,-205.9 23.04,-444.2 29.52,-627.1 465.12,471.6 934.56,853.2 1183.68,1347.8 49.68,98.7 100.08,270.8 7.92,332 -187.92,123.8 -417.6,223.2 -650.16,309.6"
         style="fill:#231f20;fill-opacity:1;fill-rule:evenodd;stroke:none"
         id="path36" /><path
         d="m 7089.12,16233.8 c -61.2,-84.9 -149.04,-98.6 -204.48,-141.8 -44.64,-34.6 -53.28,-87.1 -89.28,-130.3 101.52,-103 156.24,-136.1 257.76,-216 -3.6,181.4 39.6,306.7 36,488.1"
         style="fill:#231f20;fill-opacity:1;fill-rule:evenodd;stroke:none"
         id="path38" /><path
         d="m 7883.28,18028.8 c -210.96,-283 -389.52,-481 -576,-781.2 -52.56,-85 -70.56,-215.3 0,-272.2 97.92,-79.2 264.24,-106.5 380.88,-154 91.44,140.4 189.36,292.3 334.8,411.1 -71.28,10.1 -177.84,20.1 -248.4,30.2 127.44,215.3 239.04,373 365.76,576 20.16,7.2 112.32,-23 136.08,-36.7 25.2,20.9 28.08,79.2 23.76,103.7 -101.52,160.5 -342,172.8 -416.88,123.1"
         style="fill:#231f20;fill-opacity:1;fill-rule:evenodd;stroke:none"
         id="path40" /><path
         d="m 8175.6,19995.8 c 56.88,59.8 126.72,90.8 118.8,191.6 -3.6,43.9 -28.8,97.9 -25.92,139.6 21.6,139.7 94.32,432 330.48,475.2 246.96,102.3 452.16,-38.8 768.24,-167.7 -36,-54.7 -95.76,-85.7 -179.28,-93.6 9.36,-264.3 -92.88,-467.3 -211.68,-667.5 -33.12,-54.7 -140.4,20.9 -223.92,44.7 -64.8,15.1 -114.48,-82.8 -179.28,-124.6 -132.48,67.7 -264.96,134.7 -397.44,202.3"
         style="fill:#231f20;fill-opacity:1;fill-rule:evenodd;stroke:none"
         id="path42" /><path
         d="m 6302.88,15410.9 c 212.4,-223.9 424.8,-447.9 637.2,-671.8 230.4,-105.8 460.8,-211.7 691.92,-317.5 -149.76,-47.5 -299.52,-95 -449.28,-143.3 -205.2,80.7 -446.4,133.2 -558,237.6 -146.88,137.5 -232.56,243.4 -430.56,448.6 36,148.3 72.72,297.3 108.72,446.4"
         style="fill:#231f20;fill-opacity:1;fill-rule:evenodd;stroke:none"
         id="path44" /><path
         d="m 11083.7,19982.9 c -85,-54.7 -236.2,-175.7 -254.9,-316.1 -64.8,-486.7 10.1,-932.4 33.8,-1423.4 l -137.5,-164.2 c 118.1,-118.8 285.9,-295.9 396.7,-471.6 l 258.5,243.4 c 84.3,79.9 135.4,195.8 163.5,308.8 100.8,412.6 97.9,796.4 170.6,1214.7 72.7,-6.5 118.8,-18.7 173.5,-0.7 150.5,260.6 393.9,543.6 545.1,804.2 159.1,173.5 618.4,411.1 808.5,604.1 -11.5,18.7 -45.3,43.2 -65.5,69.8 -15.8,20.2 -113,-5.7 -157,18 26.7,16.6 159.9,22.3 145.5,45.4 -7.9,110.1 -23.1,223.9 17.3,375.8 36.7,-151.9 -4.4,-268.5 69.8,-405.3 41.8,-77.1 123.1,-100.8 199.4,-104.4 212.4,139.6 321.2,208.8 532.8,348.4 59.8,-38.1 176.4,-17.2 214.6,64.1 -90.7,200.2 -28.8,392.4 -164.9,563.8 -113,141.8 -344.1,149 -435.6,135.3 -199.4,-30.9 -244.8,-169.9 -449.3,-282.9 -145.4,186.5 -584.6,229.7 -808.5,344.9 35.3,-108.8 22.3,-200.9 -31.7,-298.1 18.7,127.4 -20.9,298.8 -38.2,460.8 -18.7,171.3 -34.5,497.5 5.8,784.1 13,90.7 55.4,120.9 67.7,318.2 5,40.3 155.5,78.5 178.5,99.4 -43.9,22.3 -61.9,52.5 -123.8,44.6 -146.2,-19.4 -393.8,-102.2 -415.4,-204.5 -96.5,-495.3 -116.7,-843.8 -171.4,-1388.9 15.8,-223.2 168.5,-295.9 277.2,-368.6 127.4,-44.6 340.6,-121 468,-126.7 -164.2,-85.7 -398.9,2.9 -541.4,41.7 -146.9,-118 -203.1,-342 -311.1,-470.1 -259.9,-263.5 -537.1,-540.7 -693.3,-778.3 112.3,-44.7 268.5,-103.7 332.6,-212.4 -85,45.3 -175.7,97.9 -259.9,126.7 z m -605.5,-2166.5 c 119.5,-172.1 226.8,-327.6 313.9,-519.1 l -357.1,-337 c -28.8,2.2 -74.9,-3.6 -123.2,25.9 6.5,-115.2 -12.2,-191.5 15.2,-295.9 23.7,-60.5 89.2,-154.8 90,-199.4 0.7,-54.7 -84.3,-104.4 -126.8,-108 -72.7,23.7 -197.2,104.4 -254.8,170.6 -90.04,103 -166.36,313.2 -216.76,464.4 30.24,83.5 110.16,144.7 172.8,168.5 -30.24,30.2 -21.6,52.6 -28.8,83.5 l 515.56,546.5"
         style="fill:#231f20;fill-opacity:1;fill-rule:evenodd;stroke:none"
         id="path46" /><path
         d="m 10409,16578 c 211.7,33.1 526.4,52.6 736.6,92.2 105.8,19.4 331.2,149 312.5,247.6 -49,262.8 -121,431.3 -252.7,663.9 -120.3,213.1 -342,437.7 -468,563 -92.2,36 -283,-78.5 -333.4,-180.7 -20.2,-39.6 -72,-144 -5,-165.6 l 97.2,102.2 c 151.9,-218.1 273.6,-393.1 375.8,-637.9 49,-116.6 95,-246.9 146.9,-359.3 -72.7,72.8 -118.1,164.9 -167.8,257.1 -26.6,-2.9 -116.6,-13.7 -144,-17.3 -78.5,-87.1 -153.3,-175 -231.8,-262.8 -33.1,5.8 -67,19.4 -100.1,25.9 -18.7,-125.3 -31,-223.9 33.8,-328.3"
         style="fill:#231f20;fill-opacity:1;fill-rule:evenodd;stroke:none"
         id="path48" /><path
         d="m 8996.4,17215.2 c 28.08,77 90.72,182.2 87.12,263.5 -7.2,205.9 -149.04,369.4 -118.08,572.4 29.52,195.9 182.88,367.9 344.16,417.6 164.16,51.1 348.48,-8.6 519.12,8.7 -5.76,-75.6 -37.44,-131.1 -93.6,-167.1 54,-33.1 88.56,-95.7 93.6,-156.9 19.44,-211 -46.08,-395.3 -88.56,-587.6 -23.04,-103.6 -252,13.7 -453.6,-43.9 144.72,-30.9 311.76,18.7 367.92,-66.2 -10.08,-94.3 -20.88,-187.9 -30.96,-282.3 0,0 -616.32,41.8 -627.12,41.8"
         style="fill:#231f20;fill-opacity:1;fill-rule:evenodd;stroke:none"
         id="path50" /><path
         d="m 11761.2,19028.9 c 46.8,-249.1 141.8,-503.3 182.2,-753.9 21.6,-135.3 -74.2,-263.5 -139,-313.9 -59,-45.3 -159.1,-75.6 -229,-14.4 110.9,352.1 139,697.7 185.8,1082.2"
         style="fill:#231f20;fill-opacity:1;fill-rule:evenodd;stroke:none"
         id="path52" /><path
         d="m 10814.4,18310.3 c -233.3,107.3 -517,191.5 -771.8,250.6 -27.4,12.9 -22.4,85.7 -13.7,123.1 -41.78,-9.4 -159.14,-18 -200.9,-13.7 -233.28,25.2 -315.36,-83.5 -414,-128.9 -40.32,-9.3 -91.44,18.8 -69.84,67 36.72,67 133.92,194.4 222.48,236.2 169.92,79.9 286.56,222.4 462.26,313.9 40.3,1.4 107.3,-42.5 156.2,-112.3 23.1,20.1 49,30.9 76.3,33.1 152.7,-58.3 317.6,-116.7 470.2,-175 3.6,-177.8 79.2,-415.4 82.8,-594"
         style="fill:#231f20;fill-opacity:1;fill-rule:evenodd;stroke:none"
         id="path54" /><path
         d="m 8380.08,18898.6 c 128.16,-234 394.56,-674 522.72,-908 -36.72,151.2 78.48,375.2 181.44,454.4 -78.48,219.6 -205.92,500.4 -284.4,720.7 -63.36,23.7 -126.72,46.8 -190.08,69.8 -65.52,-123.8 -148.32,-229.7 -229.68,-336.9"
         style="fill:#231f20;fill-opacity:1;fill-rule:evenodd;stroke:none"
         id="path56" /><path
         d="m 9945.36,20493.4 c 9.36,-167.8 120.24,-347.8 111.64,-498.3 226.8,159.1 523.4,348.5 758.8,495.4 166.4,102.9 256.4,214.5 301.7,308.1 191.5,401.8 410.4,754.6 596.9,1159.2 -118.1,82.1 -176.4,208.1 -198,386 69.8,-144.8 148.3,-228.3 245.5,-290.9 4.3,318.2 95.8,699.8 141.9,1073.5 -213.2,-67 -452.9,-147.6 -679.7,-255.6 -9.4,-41 -18.7,-82.1 -27.4,-123.1 -100.8,-73.5 -244.1,-177.9 -286.5,-313.2 -153.4,-493.9 -253.5,-1469.5 -324,-1518.5 -175,-121 -470.9,-298.1 -640.84,-422.6"
         style="fill:#231f20;fill-opacity:1;fill-rule:evenodd;stroke:none"
         id="path58" /><path
         d="m 9589.68,20319.1 c -40.32,-25.2 -133.92,-56.1 -177.12,-80.6 -19.44,-11.5 -6.48,-34.6 -28.08,-43.2 -63.36,-23.8 -126.72,-40.3 -185.04,-103 -23.76,-37.4 -32.4,-59.7 -47.52,-98.6 76.32,-116.7 182.16,-280.8 274.32,-352.8 44.64,222.5 118.8,455.7 163.44,678.2"
         style="fill:#231f20;fill-opacity:1;fill-rule:evenodd;stroke:none"
         id="path60" /><path
         d="m 12254.4,22078.1 c 355,90.7 904.3,252.7 1209.6,376.5 24.5,192.3 -137.5,329.1 -229.7,420.5 144,-9.3 218.9,-164.1 303.1,-332.6 116,-231.9 246.3,-401.8 419.1,-595.5 110.9,-124.5 244.1,-182.1 360,-175.6 115.9,5.7 247.7,40.3 302.4,106.5 89.3,108.7 174.9,220.3 258.5,334.1 -52.6,-10.1 -141.2,54.7 -202.4,85.7 -32.4,16.5 -41,90 -74.1,170.6 -8.7,20.2 -20.9,33.9 -35.3,46.1 -121.7,-112.3 -223.9,-227.5 -270.7,-364.3 7.2,72 14.4,161.3 38.9,223.9 -175,215.3 -290.2,525.6 -465.2,740.9 130.4,-38.2 141.2,-146.2 225.4,-231.1 67.7,152.6 190.1,226.8 276.5,285.8 -140.4,64.8 -268.6,115.9 -402.5,193.7 -95,54.7 -172.1,137.5 -218.2,302.4 -413.2,-137.5 -925.9,-311.8 -1339.2,-449.3 -18,-167 -104.4,-314.6 -100.8,-473 3.6,-204.5 -100,-450.8 -55.4,-665.3 z m 2770.6,338.4 c 161.2,229.7 316.8,464.4 474.4,695.5 39.6,36.7 156.3,51.1 282.3,87.8 53.3,20.2 -37.5,83.6 -78.5,110.9 -71.3,3.6 -408.2,36 -493.2,-82.8 -69.1,-162.7 -182.2,-293.7 -305.3,-412.5 56.9,-81.4 100.8,-188.7 110.9,-260.7 7.2,-48.2 11.5,-95 9.4,-138.2"
         style="fill:#231f20;fill-opacity:1;fill-rule:evenodd;stroke:none"
         id="path62" /><path
         d="m 13749.8,23613.8 c 61.2,31.7 121,59.1 152.7,163.5 45.3,151.2 157.7,385.9 311,423.3 336.3,82.1 432,-122.4 755.3,-198 25.2,-57.6 -33.8,-122.4 -112.3,-128.1 -31,-271.5 -123.9,-439.2 -262.8,-663.9 -50.4,-81.3 -225.4,27.4 -380.9,80 -121.7,41 -198,-6.5 -288.7,-36.8 -58.3,120.3 -115.9,239.8 -174.3,360"
         style="fill:#231f20;fill-opacity:1;fill-rule:evenodd;stroke:none"
         id="path64" /><path
         d="m 14272.6,21211.9 c 223.2,48.3 663.8,81.4 778.3,176.4 270,355.7 575.3,879.9 844.5,1234.8 -41,-3.6 -84.2,10.8 -125.2,-20.1 -95.1,-72.8 -219.6,-146.2 -311.1,-154.8 -238.3,-192.3 -442.1,-468.8 -679.7,-722.9 -143.2,6.5 -434.1,-10.1 -638.6,-66.3 59,-141.1 72,-360 131.8,-447.1"
         style="fill:#231f20;fill-opacity:1;fill-rule:evenodd;stroke:none"
         id="path66" /><path
         d="m 15199.2,22504.3 c 343.4,24.5 828.7,105.9 1172.2,131.8 149.7,11.5 326.1,79.2 447.8,218.1 367.2,418.4 694.1,817.2 1029.6,1261.5 -20.9,270.7 -190.1,402.5 -218.2,812.1 -209.5,-20.1 -442,-168.4 -569.5,-351.3 -283.7,-408.3 -435.6,-833.8 -641.5,-1285.9 -54.7,-95.8 -590.4,-151.2 -868.3,-262.1 -142.6,-123.9 -254.9,-354.3 -352.1,-524.2"
         style="fill:#231f20;fill-opacity:1;fill-rule:evenodd;stroke:none"
         id="path68" /><path
         d="m 15004.8,22993.9 c -109.4,18.7 -318.2,31.7 -427.7,-12.2 -90,-54.7 -116.6,-165.6 -102.9,-313.9 56.1,-117.4 131,-113.8 159.8,-182.9 33.8,-80.7 41.8,-154.1 74.2,-170.7 74.1,-37.4 187.9,-123.1 229.6,-69.8 54,68.4 51.9,172.8 36.8,282.2 -12.3,83.6 -69.2,214.6 -140.4,298.1 -21.6,17.3 -59.8,32.4 -79.2,50.4 30.9,2.9 76.3,0 118.8,-12.9 43.2,43.9 97.9,86.4 131,131.7"
         style="fill:#231f20;fill-opacity:1;fill-rule:evenodd;stroke:none"
         id="path70" /><path
         d="m 17719.9,24995.5 c -83.5,-264.2 4.3,-632.1 122.4,-963.3 346.3,23 639.4,260.6 1039.7,326.8 286.6,36 632.9,-84.9 877,-43.9 -69.2,97.9 -203.1,196.6 -288.8,251.3 136.1,13.7 350.7,-203.8 527.8,-307.4 85.7,126.7 262.8,329.7 421.2,394.5 -21.6,38.2 -43.2,75.6 -64.8,113.1 72.7,38.8 215.3,57.6 331.2,66.9 -180,143.3 -395.3,298.1 -473.8,485.3 -259.2,160.6 -671.7,116.6 -1002.9,64.8 -499.7,-77 -1005.1,-239 -1489,-388.1"
         style="fill:#231f20;fill-opacity:1;fill-rule:evenodd;stroke:none"
         id="path72" /><path
         d="m 21423.6,24497.3 c -141.1,-72 -331.9,-144 -448.6,-216 -143.2,46.1 -329,133.2 -388.8,53.3 -104.4,-72.8 -177.1,-113.1 -300.9,-213.9 -86.4,-61.9 -275.1,25.2 -258.5,85.7 133.9,123.8 148.3,191.5 286.6,310.3 87.8,75.6 324,141.9 465.1,113.8 216.7,-43.2 429.1,-90 645.1,-133.2"
         style="fill:#231f20;fill-opacity:1;fill-rule:evenodd;stroke:none"
         id="path74" /><path
         d="m 20756.9,24320.2 c 75.6,-41.1 182.1,-55.5 258.5,-95.8 283.6,164.9 578.1,235.4 871.2,382.3 86.4,43.2 192.2,74.9 331.9,18 94.3,-38.1 98.6,-61.9 184.3,-116.6 -48.2,-28.8 -149,-113.8 -209.5,-151.9 -47.5,15.1 -87.9,36 -135.4,50.4 -309.6,-216 -522.7,-419.1 -843.1,-603.4 -101.5,-31.7 -243.4,-61.2 -341.3,-15.8 -182.1,85.6 -380.9,208 -558.7,302.4 86.4,90 180.7,144 302.4,220.3 28.1,18 92.9,35.3 139.7,10.1"
         style="fill:#231f20;fill-opacity:1;fill-rule:evenodd;stroke:none"
         id="path76" /><path
         d="m 20163.6,25263.4 c 43.2,40.3 151.9,20.8 173.5,104.4 -3.6,46.8 20.2,77.7 16.6,125.2 58.3,167.1 108.7,443.6 362.1,424.1 252.8,136.1 526.4,-20.1 770.4,-195.1 -42.4,-131 -102.9,-157.7 -163.4,-185.8 -41,-241.9 -144,-490.3 -312.5,-682.5 -118.1,-136.1 -270,43.2 -411.1,83.5 -125.3,8.6 -207.4,-9.4 -289.4,-43.9 0,0 -157,348.5 -146.2,370.1"
         style="fill:#231f20;fill-opacity:1;fill-rule:evenodd;stroke:none"
         id="path78" /><path
         d="m 16796.2,24358.3 c -108,-205.2 -191.6,-496.8 -326.2,-735.1 -233.3,-61.9 -600.5,-129.6 -844.6,-157.7 -244.8,-28.1 -591.1,-16.5 -835.2,-45.3 38.2,94.3 131.8,276.4 147.6,401 87.9,56.2 121.7,77 148.4,160.6 179.2,34.5 420.4,-4.4 599.7,30.2 341.3,66.2 768.3,280.1 1110.3,346.3"
         style="fill:#231f20;fill-opacity:1;fill-rule:evenodd;stroke:none"
         id="path80" /><path
         d="m 22769.3,24714 c -164.2,-108 -314.7,-242.6 -493.2,-363.6 -71.3,-48.2 -121.7,-103.7 -193.7,-61.2 -13,7.2 -25.2,15.1 -38.2,22.3 -123.8,-61.2 -315.3,-221.7 -439.2,-324 88.6,-61.2 208.1,-96.5 302.4,-148.3 97.2,-53.3 212.4,-85 305.3,-43.2 309.6,139 635.1,349.9 923.8,527.8 -65.5,131 -217.5,372.2 -367.2,390.2"
         style="fill:#231f20;fill-opacity:1;fill-rule:evenodd;stroke:none"
         id="path82" /><path
         d="m 43139.5,11090.2 h -9190.8 l -74.9,-620.7 -294.4,-87.8 -62,-510.5 435.6,-1977.84 -61.9,-273.6 278.7,-541.44 358.5,-1164.24 -216.7,-259.92 -2.9,-3218.4 -160.5,-218.88 L 34200,262.805 34337.5,0 h 8802 v 11090.2"
         style="fill:#231f20;fill-opacity:1;fill-rule:evenodd;stroke:none"
         id="path84" /><path
         d="m 37406.2,16383.6 c 167,-49 266.4,-66.2 346.3,-129.6 216.7,-170.6 268.5,-752.4 349.9,-1266.5 -13.7,0 -27.4,0.7 -40.3,2.2 l -1032.5,58.3 c -37.4,139.7 -86.4,276.5 -122.4,416.2 91.4,84.2 188.6,151.2 295.9,187.2 -124.5,3.6 -263.5,-63.4 -404.6,-140.4 -341.3,-177.2 -527.1,-317.6 -891.4,-440.7 -108.7,-36.7 -257.7,227.5 -256.3,337 6.5,370.8 19.4,708.5 76.3,1083.6 -51.8,56.9 -103.7,113.7 -155.5,171.3 36.7,40.4 120.2,69.9 168.5,49.7 110.9,-46.8 223.9,-172.8 236.9,-236.9 -5.8,-288 61.9,-534.2 56.8,-822.2 -66.9,-117.4 -90.7,-234 -109.4,-350.6 53.3,113.7 100.8,275 154.1,327.6 166.3,136.8 291.6,216 455.7,354.2 59.1,49.7 81.4,59.8 147.6,99.4 109.5,66.2 233.3,106.5 350,159.8 -124.6,-5 -190.1,-10.8 -315.4,-15.8 -47.5,15.8 -160.6,399.6 -126.7,707.7 -37.5,5.1 -72.7,86.4 -63.4,161.3 108,-34.6 181.5,41.8 305.3,57.6 141.1,18 381.6,38.2 452.9,-95.8 42.5,-3.6 102.9,-27.3 133.9,-164.1 31,-137.5 -8.6,-321.9 -12.2,-510.5 z m 787.6,-1867.7 c 24.5,-118.8 49.7,-241.9 69.9,-333.3 -171.4,38.1 -355,126 -526.3,95.7 185,-47.5 380.1,-86.4 529.2,-171.3 5,-108.8 -36.8,-346.4 -125.3,-409.7 -548.7,-398.2 -1053.4,-558 -1650.3,-878.4 95.1,-0.7 167.8,-34.6 233.3,-77.8 36,-395.3 68.4,-840.2 103.7,-1235.5 -23,-15.1 -64.8,-47.5 -106.6,-49 -3.6,-148.3 68.4,-180.7 49.7,-366.4 -294.5,0 -588.2,0 -882.7,0 -34.6,7.9 -50.4,95 -23,104.4 103.6,38.8 249.8,43.9 307.4,95.7 77.8,69.9 136.8,105.9 206.6,184.3 -69.8,-2.8 -150.4,34.6 -206.6,41.8 -22.3,474.5 -40.3,862.6 -129.6,1337.8 -25.2,133.9 -64.1,339.1 46.1,441.3 329.7,306.7 722.1,578.9 1087.2,842.4 -46.8,0 -93.6,0 -140.4,0 13.7,189.4 56.1,378.7 51.1,567.4 l 987.1,-187.9 c 32.4,-4.4 72.7,-4.4 119.5,-1.5"
         style="fill:#231f20;fill-opacity:1;fill-rule:evenodd;stroke:none"
         id="path86" /><path
         d="m 38003.8,13523 c -27.4,-195.1 -54,-390.2 -81.4,-586 -119.5,-21.6 -215.3,-83.6 -300.2,-163.5 126.7,49 179.2,62.7 282.2,65.5 64.1,-51.8 129.6,-103.6 195.8,-155.5 -110.8,-171.3 -225.3,-336.2 -342,-499.7 -118.8,80.7 -239.7,164.9 -359.2,261.4 -95.1,76.3 -117.4,198 -118.8,297.4 -2.2,125.2 6.4,250.5 10,376.5 237.6,134.7 476,269.3 713.6,403.9 z m 571.6,-1199.5 c 168.5,-126.7 334.8,-253.4 491.1,-380.9 4.3,-45.3 5.7,-90.7 -13,-136.8 54,-30.2 114.5,-25.2 167.8,-147.6 -27.4,-92.8 -102.3,-204.4 -159.9,-271.4 -23,2.9 -66.9,18 -90,-2.9 -68.4,-95 -89.2,-231.1 -169.2,-293.7 -125.2,0 -250.5,0 -375.8,0 -5.8,38.8 -38.9,84.9 -16.6,117.3 45.4,67.7 180.8,61.9 195.2,147.6 14.4,85.7 -15.9,178.6 0,267.9 -46.1,-57.6 -92.9,-2.9 -139,2.8 -67.7,75.6 -140.4,143.3 -216.7,206.7 128.9,190.1 247.7,376.5 326.1,491"
         style="fill:#231f20;fill-opacity:1;fill-rule:evenodd;stroke:none"
         id="path88" /><path
         d="m 39129.8,15359.8 c -22.3,78.4 -219.6,280 -185.7,325.4 123.8,162.7 219.6,310.3 342.7,473.8 64.8,91.4 -28.1,101.5 75.6,236.8 107.3,-160.5 393.1,-162.7 562.3,-325.4 69.9,-67.7 84.3,-153.4 72.7,-230.4 20.2,-44.6 35.3,-79.2 33.2,-127.4 -8,-183.6 -119.6,-324 -324,-417.6 87.8,-17.3 194.4,-80.7 218.8,-154.1 245.6,-741.6 697.7,-1273 913.7,-1872.7 -144,-94.4 -358.5,-70.6 -527,-104.4 165.6,-24.5 331.2,-24.5 496.8,60.4 51.1,-237.6 33.8,-419 -108.7,-727.2 -105.9,-258.4 -185.8,-516.9 -254.9,-775.4 -70.6,-120.2 -146.9,-240.5 -133.2,-375.1 58.3,131 88.5,230.4 188.6,292.3 371.5,92.9 784.8,149 1156.3,241.9 19.5,5.1 34.6,-5 54.8,-4.3 125.2,4.3 164.1,93.6 352,101.5 80.7,-190.1 106.6,-395.3 187.2,-585.3 10.1,-121.7 -82,-230.4 -158.4,-302.4 -88.5,0 -143.2,0 -231.8,0 -3.6,25.2 -32.4,55.4 -8.6,113 32.4,43.9 103.6,92.2 136,136.8 -74.8,5 -105.1,127.4 -162,163.4 -3.6,-56.1 -7.9,-113 -12.2,-169.2 -464.4,-47.5 -918,-141.1 -1368.7,-244 -161.3,0 -323.3,0 -484.6,0 -81.3,68.4 -179.3,172.8 -181.4,329 -5.8,373 64.8,743 96.5,1114.6 162,56.1 323.2,113 484.5,169.2 -294.5,-60.5 -572.4,-130.4 -867.6,-190.1 -221.7,-44.7 -552.9,-72 -774.7,-116.7 -75.6,-69.8 -448.6,-702 -730.8,-1037.5 -60.5,0.7 -116.6,23.8 -169.9,51.9 -10.8,-35.3 27.3,-41.8 51.1,-63.4 18.7,-110.2 -12.2,-157.7 -39.6,-194.4 -10.1,-13.7 0,-41.8 -5,-62.6 -295.2,0 -572.4,0 -867.6,0 -32.4,17.2 -36,96.4 -23.1,123.1 129.6,43.9 259.9,58.3 374.4,133.2 91.5,59 145.5,144 213.9,228.9 -37.5,24.5 -32.4,83.6 -36,108 246.2,347.1 490.3,672.5 718.5,1031.8 82.1,128.9 196.6,209.5 351.4,254.2 362.9,104.4 727.2,202.3 1090.8,303.1 -173.5,553.7 -449.3,809.3 -536.4,1208.9 108,6.4 244.1,-46.1 366.5,-95.1 -117.4,97.2 -234,155.5 -351.4,169.9 -343.4,-44.6 -836.6,-156.2 -1029.6,-133.9 -359.3,69.1 -718.6,137.5 -1077.8,206.7 -97.2,64 -71.3,286.5 0,326.8 354.9,-20.1 710.6,-40.3 1065.6,-60.4 310.3,-25.2 879.1,208.8 1380.9,266.4 -123.1,14.4 -223.2,7.9 -352.8,-11.6 9.4,40.4 -20.9,146.9 18.7,209.6"
         style="fill:#231f20;fill-opacity:1;fill-rule:evenodd;stroke:none"
         id="path90" /><path
         d="m 36249.1,13526.6 c 16.6,114.5 2.2,430.6 -54.7,635.8 -162.7,56.9 -256.3,14.4 -378,49 -5.8,30.2 -10.1,66.2 -39.6,77.7 -345.6,79.2 -636.5,231.9 -981.4,311.1 -133.2,66.2 -658,-15.9 -554.4,125.2 59.8,-81.3 292.4,-19.4 425.6,-49.6 140.4,110.1 219.6,220.3 236.1,413.2 -43.2,152 -201.6,195.9 -362.9,236.2 153.4,31.7 286.6,1.4 399.6,-90.7 -66.2,391.7 -295.2,848.1 -345.6,1271.5 79.2,18.7 136.8,77 215.3,95 -144.7,230.4 -222.5,365.8 -311.7,618.5 -26.7,7.9 -157,47.5 -183.6,54 -285.2,71.3 -597.6,70.6 -848.2,36 -101.5,-13.7 -169.9,-55.4 -258.5,-71.3 77.8,-63.3 149.8,-125.2 181.5,-207.3 -77.8,-271.5 -167.1,-428.4 -290.2,-558.7 64.8,-512.7 406.8,-1082.2 471.6,-1782.8 122.4,208.1 169.9,329.8 260.6,435.6 -102.9,-266.4 -193.6,-509.7 -236.1,-671.7 -55.5,-217.5 49.7,-427.7 127.4,-436.3 687.6,-77.8 1392.5,-77.8 1903.7,-414.8 52.6,64.1 91.4,238.4 114.5,370.8 16.5,-105.8 4.3,-176.4 -3.6,-226.8 7.9,-29.5 76.3,-79.2 76.3,-110.1 -5.8,-79.2 -32.4,-158.4 -18,-236.2 10.8,-61.9 56.2,-110.9 90.7,-163.4 121,96.5 242.7,193.7 363.6,290.1"
         style="fill:#231f20;fill-opacity:1;fill-rule:evenodd;stroke:none"
         id="path92" /><path
         d="m 34682.4,13795.9 c -416.2,85 -609.8,131.8 -766.1,149.1 90.7,-301 178.6,-807.2 277.9,-926.7 296,-356.4 640.8,-670.3 941.1,-1023.8 113,-132.5 104.4,-222.5 203,-367.2 195.9,70.5 417.6,138.9 560.9,331.9 -442.8,362.2 -687.6,939.6 -1144.1,1327.7 -25.9,-72.7 -20.9,-153.4 -24.5,-221.1 -69.1,137.6 -32.4,487.5 -48.2,730.1"
         style="fill:#231f20;fill-opacity:1;fill-rule:evenodd;stroke:none"
         id="path94" /><path
         d="m 35819.3,11949.8 c 74.9,-79.9 146.1,-165.6 196.5,-294.4 -72,-110.2 -144.7,-190.1 -216.7,-239.1 -28.8,10.8 -57.6,22.3 -87.1,33.1 -80.6,-180 -152.6,-327.6 -195.8,-359.2 -147.6,0 -294.5,0 -441.4,0 -6.5,43.9 -35.3,90 -1.4,125.2 48.9,50.4 161.2,31 169.9,103 33.1,170.6 65.5,341.3 97.9,512.6 159.8,39.6 319,79.2 478.1,118.8"
         style="fill:#231f20;fill-opacity:1;fill-rule:evenodd;stroke:none"
         id="path96" /><path
         d="m 36047.5,18093.6 c -154.8,-7.2 -306.7,-23.8 -447.8,-72.7 -63.4,-22.3 -128.9,-44.7 -196.6,-67.7 178.6,-232.6 336.3,-416.9 499.7,-680.4 v -0.7 c 105.8,10.8 207.4,28.1 302.4,58.3 177.8,56.2 376.6,174.2 436.3,351.4 56.2,167 -25.9,295.9 -89.3,425.5 -78.4,8.6 -185.7,4.3 -278.6,-3.6 97.2,54.7 214.6,51.1 311,67.7 -220.3,393.8 -534.2,805.6 -882.7,1257.1 -58.3,75.6 -117.3,294.5 -183.6,362.1 -130.3,133.2 -321.8,280.1 -506.9,254.2 -497.5,-69.8 -892,-339.8 -1360.8,-521.3 -62.6,342.7 -126,635.8 -196.5,976.3 -26.7,130.4 -141.1,190.1 -265.7,267.2 -72,45.3 -298.8,85.6 -373,13.6 114.5,-72.7 228.3,-145.4 342.8,-218.1 -15.2,-425.5 12.2,-775.5 1.4,-1201.7 -2.9,-118.8 261.4,-343.4 366.5,-337.7 380.9,20.9 1013,359.3 1388.1,378 -107.2,-37.4 -210.2,-59.7 -293,-106.5 229.7,-505.5 587.5,-869.8 704.2,-1239.9 l 1.4,-0.7 c 13,-17.3 26.6,-35.3 39.6,-51.8 231.1,69.8 427.7,153.3 681.1,91.4 z m -962.6,-253.4 c 120.2,-191.6 205.9,-329.1 329,-535.7 -216.7,-31 -361.4,-55.5 -617,-83.5 92.9,-23.8 181.4,-28.8 274.3,-52.6 196.6,-172.1 388.1,-470.9 584.6,-690.5 -32.4,-205.9 -23,-444.2 -29.5,-627.1 -465.8,471.6 -934.5,853.2 -1183.7,1347.8 -49.6,98.7 -100,270.8 -7.9,332 187.2,123.8 417.6,223.2 650.2,309.6"
         style="fill:#231f20;fill-opacity:1;fill-rule:evenodd;stroke:none"
         id="path98" /><path
         d="m 36049.7,16233.8 c 61.9,-84.9 149.7,-98.6 204.5,-141.8 45.3,-34.6 54,-87.1 90,-130.3 -101.6,-103 -156.3,-136.1 -257.8,-216 3.6,181.4 -40.3,306.7 -36.7,488.1"
         style="fill:#231f20;fill-opacity:1;fill-rule:evenodd;stroke:none"
         id="path100" /><path
         d="m 35256.2,18028.8 c 211,-283 389.6,-481 576,-781.2 52.6,-85 70.6,-215.3 0,-272.2 -97.9,-79.2 -264.2,-106.5 -380.8,-154 -92.2,140.4 -189.4,292.3 -334.8,411.1 70.5,10.1 177.8,20.1 248.4,30.2 -127.5,215.3 -239.1,373 -365.8,576 -20.2,7.2 -112.3,-23 -136.1,-36.7 -25.2,20.9 -28.1,79.2 -23.7,103.7 100.8,160.5 342,172.8 416.8,123.1"
         style="fill:#231f20;fill-opacity:1;fill-rule:evenodd;stroke:none"
         id="path102" /><path
         d="m 34963.9,19995.8 c -56.9,59.8 -126.7,90.8 -118.8,191.6 3.6,43.9 28.8,97.9 25.9,139.6 -21.6,139.7 -94.3,432 -331.2,475.2 -246.2,102.3 -451.4,-38.8 -767.5,-167.7 36,-54.7 95.8,-85.7 179.3,-93.6 -9.4,-264.3 92.9,-467.3 211.7,-667.5 33.1,-54.7 140.4,20.9 223.9,44.7 64.8,15.1 114.5,-82.8 179.3,-124.6 132.5,67.7 264.9,134.7 397.4,202.3"
         style="fill:#231f20;fill-opacity:1;fill-rule:evenodd;stroke:none"
         id="path104" /><path
         d="m 36836.6,15410.9 c -212.4,-223.9 -424.8,-447.9 -637.2,-671.8 -230.4,-105.8 -461.5,-211.7 -691.9,-317.5 149.8,-47.5 299.5,-95 449.3,-143.3 205.2,80.7 446.4,133.2 558,237.6 146.9,137.5 232.6,243.4 430.6,448.6 -36,148.3 -72.8,297.3 -108.8,446.4"
         style="fill:#231f20;fill-opacity:1;fill-rule:evenodd;stroke:none"
         id="path106" /><path
         d="m 32055.8,19982.9 c 85,-54.7 235.5,-175.7 254.2,-316.1 65.5,-486.7 -9.4,-932.4 -33.1,-1423.4 l 137.5,-164.2 c -118.1,-118.8 -286.6,-295.9 -396.7,-471.6 l -258.5,243.4 c -85,79.9 -136.1,195.8 -163.4,308.8 -100.8,412.6 -98,796.4 -170.7,1214.7 -72.7,-6.5 -118.8,-18.7 -173.5,-0.7 -151.2,260.6 -393.8,543.6 -545,804.2 -159.2,173.5 -618.5,411.1 -808.6,604.1 11.5,18.7 45.4,43.2 65.5,69.8 15.9,20.2 113.1,-5.7 157,18 -26.7,16.6 -159.9,22.3 -145.5,45.4 8,110.1 23.1,223.9 -17.2,375.8 -36.8,-151.9 4.3,-268.5 -69.9,-405.3 -41.7,-77.1 -123.1,-100.8 -199.4,-104.4 -212.4,139.6 -321.1,208.8 -532.8,348.4 -59.8,-38.1 -176.4,-17.2 -214.6,64.1 90.7,200.2 28.1,392.4 164.9,563.8 113,141.8 344.2,149 435.6,135.3 199.4,-30.9 244.8,-169.9 449.3,-282.9 145.4,186.5 584.6,229.7 808.5,344.9 -35.2,-108.8 -22.3,-200.9 31,-298.1 -18,127.4 21.6,298.8 38.9,460.8 18.7,171.3 34.5,497.5 -6.5,784.1 -12.2,90.7 -54.7,120.9 -67,318.2 -5,40.3 -155.5,78.5 -178.5,99.4 43.9,22.3 61.9,52.5 123.8,44.6 146.2,-19.4 393.9,-102.2 415.5,-204.5 96.4,-495.3 116.6,-843.8 170.6,-1388.9 -15.1,-223.2 -167.8,-295.9 -276.5,-368.6 -127.4,-44.6 -340.5,-121 -468,-126.7 164.2,-85.7 398.9,2.9 541.5,41.7 146.8,-118 203,-342 311,-470.1 259.9,-263.5 537.1,-540.7 692.6,-778.3 -111.6,-44.7 -268.5,-103.7 -331.9,-212.4 84.3,45.3 175.7,97.9 259.9,126.7 z m 605.6,-2166.5 c -119.6,-172.1 -226.8,-327.6 -314,-519.1 l 357.2,-337 c 28.8,2.2 74.8,-3.6 123.1,25.9 -6.5,-115.2 12.2,-191.5 -15.1,-295.9 -24.5,-60.5 -89.3,-154.8 -90,-199.4 -0.8,-54.7 84.2,-104.4 126.7,-108 72.7,23.7 196.5,104.4 254.9,170.6 90,103 166.3,313.2 216.7,464.4 -30.3,83.5 -110.2,144.7 -172.8,168.5 30.2,30.2 21.6,52.6 28.8,83.5 l -515.5,546.5"
         style="fill:#231f20;fill-opacity:1;fill-rule:evenodd;stroke:none"
         id="path108" /><path
         d="m 32730.5,16578 c -211.7,33.1 -526.3,52.6 -736.6,92.2 -106.5,19.4 -331.2,149 -313.2,247.6 49,262.8 121.7,431.3 253.5,663.9 120.2,213.1 342,437.7 468,563 92.1,36 282.9,-78.5 333.3,-180.7 20.2,-39.6 72,-144 5.1,-165.6 l -97.2,102.2 c -152,-218.1 -273.6,-393.1 -375.9,-637.9 -48.9,-116.6 -95,-246.9 -146.9,-359.3 72.8,72.8 118.1,164.9 167.8,257.1 26.6,-2.9 116.6,-13.7 144,-17.3 78.5,-87.1 153.4,-175 231.8,-262.8 33.2,5.8 67,19.4 100.1,25.9 18.7,-125.3 31,-223.9 -33.8,-328.3"
         style="fill:#231f20;fill-opacity:1;fill-rule:evenodd;stroke:none"
         id="path110" /><path
         d="m 34143.1,17215.2 c -28.1,77 -90.7,182.2 -87.1,263.5 7.2,205.9 149,369.4 118.1,572.4 -29.5,195.9 -182.9,367.9 -344.2,417.6 -164.1,51.1 -348.5,-8.6 -519.1,8.7 5.8,-75.6 37.4,-131.1 93.6,-167.1 -54,-33.1 -88.6,-95.7 -93.6,-156.9 -19.4,-211 46.1,-395.3 88.6,-587.6 23,-103.6 252,13.7 453.6,-43.9 -144.8,-30.9 -311.8,18.7 -368,-66.2 10.1,-94.3 20.9,-187.9 31,-282.3 0,0 616.3,41.8 627.1,41.8"
         style="fill:#231f20;fill-opacity:1;fill-rule:evenodd;stroke:none"
         id="path112" /><path
         d="m 31378.3,19028.9 c -46.8,-249.1 -141.8,-503.3 -182.1,-753.9 -21.6,-135.3 74.1,-263.5 138.9,-313.9 59.1,-45.3 159.1,-75.6 229,-14.4 -110.9,352.1 -139,697.7 -185.8,1082.2"
         style="fill:#231f20;fill-opacity:1;fill-rule:evenodd;stroke:none"
         id="path114" /><path
         d="m 32325.1,18310.3 c 232.6,107.3 517,191.5 771.9,250.6 27.3,12.9 22.3,85.7 13.6,123.1 41.8,-9.4 159.2,-18 200.9,-13.7 233.3,25.2 315.4,-83.5 414,-128.9 40.3,-9.3 91.5,18.8 69.9,67 -36.8,67 -134,194.4 -222.5,236.2 -169.9,79.9 -286.6,222.4 -462.3,313.9 -40.3,1.4 -107.2,-42.5 -156.2,-112.3 -23.8,20.1 -49,30.9 -76.3,33.1 -152.7,-58.3 -317.5,-116.7 -470.2,-175 -3.6,-177.8 -79.2,-415.4 -82.8,-594"
         style="fill:#231f20;fill-opacity:1;fill-rule:evenodd;stroke:none"
         id="path116" /><path
         d="m 34759.4,18898.6 c -128.1,-234 -395.2,-674 -522.7,-908 36.7,151.2 -78.5,375.2 -181.4,454.4 78.5,219.6 205.9,500.4 284.4,720.7 63.3,23.7 126.7,46.8 190.1,69.8 65.5,-123.8 147.6,-229.7 229.6,-336.9"
         style="fill:#231f20;fill-opacity:1;fill-rule:evenodd;stroke:none"
         id="path118" /><path
         d="m 33194.2,20493.4 c -9.4,-167.8 -120.3,-347.8 -111.6,-498.3 -226.8,159.1 -523.5,348.5 -758.9,495.4 -166.3,102.9 -256.3,214.5 -301.7,308.1 -192.2,401.8 -410.4,754.6 -596.9,1159.2 117.4,82.1 176.4,208.1 198,386 -69.8,-144.8 -148.3,-228.3 -245.5,-290.9 -4.3,318.2 -95.8,699.8 -141.8,1073.5 213.1,-67 452.8,-147.6 679.6,-255.6 9.4,-41 18.8,-82.1 27.4,-123.1 100.8,-73.5 244.1,-177.9 286.6,-313.2 153.3,-493.9 253.4,-1469.5 324,-1518.5 174.9,-121 470.8,-298.1 640.8,-422.6"
         style="fill:#231f20;fill-opacity:1;fill-rule:evenodd;stroke:none"
         id="path120" /><path
         d="m 33549.8,20319.1 c 40.4,-25.2 134,-56.1 177.2,-80.6 19.4,-11.5 6.4,-34.6 28,-43.2 63.4,-23.8 126,-40.3 185.1,-103 23,-37.4 32.4,-59.7 47.5,-98.6 -76.3,-116.7 -182.2,-280.8 -274.3,-352.8 -44.7,222.5 -118.8,455.7 -163.5,678.2"
         style="fill:#231f20;fill-opacity:1;fill-rule:evenodd;stroke:none"
         id="path122" /><path
         d="m 30885.1,22078.1 c -354.9,90.7 -905,252.7 -1209.6,376.5 -24.5,192.3 137.5,329.1 229.7,420.5 -144,-9.3 -218.9,-164.1 -303.1,-332.6 -115.9,-231.9 -246.3,-401.8 -419.1,-595.5 -110.8,-124.5 -244,-182.1 -360,-175.6 -115.9,5.7 -247.6,40.3 -302.4,106.5 -89.2,108.7 -174.9,220.3 -258.4,334.1 52.5,-10.1 141.1,54.7 202.3,85.7 32.4,16.5 41,90 74.1,170.6 8.7,20.2 20.9,33.9 35.3,46.1 121.7,-112.3 223.9,-227.5 270.7,-364.3 -7.2,72 -14.4,161.3 -38.8,223.9 174.9,215.3 290.1,525.6 465.1,740.9 -130.3,-38.2 -141.1,-146.2 -225.4,-231.1 -67.7,152.6 -190.1,226.8 -276.5,285.8 140.4,64.8 268.6,115.9 402.5,193.7 95.1,54.7 172.1,137.5 218.2,302.4 413.3,-137.5 925.9,-311.8 1339.2,-449.3 18,-167 103.7,-314.6 100.8,-473 -3.6,-204.5 100.1,-450.8 55.4,-665.3 z m -2770.5,338.4 c -161.3,229.7 -316.8,464.4 -474.5,695.5 -39.6,36.7 -156.3,51.1 -282.3,87.8 -53.2,20.2 37.5,83.6 78.5,110.9 71.3,3.6 408.3,36 493.2,-82.8 69.1,-162.7 181.5,-293.7 305.3,-412.5 -56.9,-81.4 -100.8,-188.7 -110.9,-260.7 -7.2,-48.2 -11.5,-95 -9.3,-138.2"
         style="fill:#231f20;fill-opacity:1;fill-rule:evenodd;stroke:none"
         id="path124" /><path
         d="m 29389.7,23613.8 c -61.2,31.7 -121,59.1 -152.7,163.5 -46,151.2 -157.6,385.9 -311,423.3 -336.2,82.1 -432,-122.4 -755.3,-198 -25.2,-57.6 33.9,-122.4 112.3,-128.1 31,-271.5 123.9,-439.2 262.8,-663.9 50.4,-81.3 225.4,27.4 380.9,80 121.7,41 198,-6.5 288.7,-36.8 57.6,120.3 116,239.8 174.3,360"
         style="fill:#231f20;fill-opacity:1;fill-rule:evenodd;stroke:none"
         id="path126" /><path
         d="m 28867,21211.9 c -223.2,48.3 -664.6,81.4 -778.4,176.4 -270,355.7 -575.2,879.9 -844.5,1234.8 41,-3.6 84.2,10.8 125.3,-20.1 95,-72.8 219.6,-146.2 311,-154.8 238.3,-192.3 442.1,-468.8 679.7,-722.9 143.3,6.5 433.4,-10.1 638.6,-66.3 -59,-141.1 -72,-360 -131.7,-447.1"
         style="fill:#231f20;fill-opacity:1;fill-rule:evenodd;stroke:none"
         id="path128" /><path
         d="m 27940.3,22504.3 c -343.4,24.5 -828.7,105.9 -1172.1,131.8 -149.8,11.5 -326.2,79.2 -448.6,218.1 -366.5,418.4 -693.4,817.2 -1028.9,1261.5 20.9,270.7 189.4,402.5 218.2,812.1 209.5,-20.1 442.1,-168.4 569.5,-351.3 283.7,-408.3 435.6,-833.8 641.5,-1285.9 54.7,-95.8 590.4,-151.2 868.3,-262.1 142.6,-123.9 254.9,-354.3 352.1,-524.2"
         style="fill:#231f20;fill-opacity:1;fill-rule:evenodd;stroke:none"
         id="path130" /><path
         d="m 28134.7,22993.9 c 109.5,18.7 318.3,31.7 427.7,-12.2 89.3,-54.7 116.6,-165.6 103,-313.9 -56.2,-117.4 -131.1,-113.8 -159.9,-182.9 -33.8,-80.7 -41.7,-154.1 -74.1,-170.7 -74.2,-37.4 -188,-123.1 -229.7,-69.8 -54,68.4 -52.6,172.8 -36.7,282.2 12.2,83.6 69.1,214.6 139.6,298.1 22.4,17.3 60.5,32.4 79.2,50.4 -30.2,2.9 -75.6,0 -118,-12.9 -44,43.9 -98,86.4 -131.1,131.7"
         style="fill:#231f20;fill-opacity:1;fill-rule:evenodd;stroke:none"
         id="path132" /><path
         d="m 25418.9,24995.5 c 84.2,-264.2 -3.6,-632.1 -121.7,-963.3 -346.3,23 -639.4,260.6 -1039.7,326.8 -286.5,36 -632.9,-84.9 -876.9,-43.9 69.1,97.9 203,196.6 288,251.3 -135.4,13.7 -432,-229.7 -609.2,-332.6 -86.4,126 -180.7,354.9 -339.1,419.7 21.6,38.2 79.2,70.6 64.8,113.1 -72.7,38.8 -215.3,57.6 -331.2,66.9 179.3,143.3 395.3,298.1 473.8,485.3 259.2,160.6 671.7,116.6 1002.9,64.8 499.7,-77 1005.2,-239 1488.3,-388.1"
         style="fill:#231f20;fill-opacity:1;fill-rule:evenodd;stroke:none"
         id="path134" /><path
         d="m 22975.9,25263.4 c -43.9,40.3 -151.9,20.8 -174.2,104.4 3.6,46.8 -19.5,77.7 -15.9,125.2 -58.3,167.1 -108.7,443.6 -362.1,424.1 -253.5,136.1 -527.1,-20.1 -771.1,-195.1 42.4,-131 102.9,-157.7 163.4,-185.8 41,-241.9 144.7,-490.3 313.2,-682.5 118.1,-136.1 270,43.2 411.1,83.5 125.3,8.6 207.4,-9.4 289.5,-43.9 0,0 156.9,348.5 146.1,370.1"
         style="fill:#231f20;fill-opacity:1;fill-rule:evenodd;stroke:none"
         id="path136" /><path
         d="m 26343.4,24358.3 c 108,-205.2 191.5,-496.8 326.1,-735.1 233.3,-61.9 600.5,-129.6 844.6,-157.7 244.8,-28.1 591.1,-16.5 835.2,-45.3 -38.2,94.3 -131.8,276.4 -147.6,401 -87.9,56.2 -121.7,77 -148.3,160.6 -179.3,34.5 -420.5,-4.4 -599.8,30.2 -342,66.2 -769,280.1 -1110.2,346.3"
         style="fill:#231f20;fill-opacity:1;fill-rule:evenodd;stroke:none"
         id="path138" /><path
         d="m 34355.5,5037.13 238.3,-2640.97 437.1,-422.64 27.3,668.88 -702.7,2394.73"
         style="fill:#656263;fill-opacity:1;fill-rule:evenodd;stroke:none"
         id="path140" /><path
         d="m 33685.2,10291 243.4,76.3 358.5,-332.7 z"
         style="fill:#656263;fill-opacity:1;fill-rule:evenodd;stroke:none"
         id="path142" /><path
         d="m 34435.4,2201.04 -156.2,-172.08 437.8,-563.76 94.3,141.12 -375.9,594.72"
         style="fill:#656263;fill-opacity:1;fill-rule:evenodd;stroke:none"
         id="path144" /><path
         d="m 35120.2,6579.36 -74.9,274.32 -709.2,510.48 460.1,-684.71 324,-100.09"
         style="fill:#656263;fill-opacity:1;fill-rule:evenodd;stroke:none"
         id="path146" /><path
         d="m 8937.36,2996.64 -469.44,-1126.08 -30.96,-249.84 531.36,781.92 -30.96,594"
         style="fill:#656263;fill-opacity:1;fill-rule:evenodd;stroke:none"
         id="path148" /><path
         d="M 9474.48,10276.6 8863.92,9822.24 9036,9712.8 l 390.96,172.08 47.52,391.72"
         style="fill:#656263;fill-opacity:1;fill-rule:evenodd;stroke:none"
         id="path150" /><path
         d="m 8972.64,6962.4 -493.2,-599.04 23.76,-1056.23 258.48,845.27 257.76,281.52 -46.8,528.48"
         style="fill:#656263;fill-opacity:1;fill-rule:evenodd;stroke:none"
         id="path152" /><path
         d="m 8577.36,4494.24 338.4,-197.28 56.16,-789.12 -169.2,676.08 -225.36,310.32"
         style="fill:#656263;fill-opacity:1;fill-rule:evenodd;stroke:none"
         id="path154" /></g></g></svg>
