<?xml version="1.0" encoding="UTF-8" standalone="no"?>
<svg
   xmlns:dc="http://purl.org/dc/elements/1.1/"
   xmlns:cc="http://creativecommons.org/ns#"
   xmlns:rdf="http://www.w3.org/1999/02/22-rdf-syntax-ns#"
   xmlns:svg="http://www.w3.org/2000/svg"
   xmlns="http://www.w3.org/2000/svg"
   xmlns:sodipodi="http://sodipodi.sourceforge.net/DTD/sodipodi-0.dtd"
   xmlns:inkscape="http://www.inkscape.org/namespaces/inkscape"
   version="1.1"
   id="svg2"
   xml:space="preserve"
   width="666.66669"
   height="666.66669"
   viewBox="0 0 666.66669 666.66669"
   sodipodi:docname="news-2389226.ai"><metadata
     id="metadata8"><rdf:RDF><cc:Work
         rdf:about=""><dc:format>image/svg+xml</dc:format><dc:type
           rdf:resource="http://purl.org/dc/dcmitype/StillImage" /></cc:Work></rdf:RDF></metadata><defs
     id="defs6"><clipPath
       clipPathUnits="userSpaceOnUse"
       id="clipPath20"><path
         d="M 0,500 H 500 V 0 H 0 Z"
         id="path18" /></clipPath><clipPath
       clipPathUnits="userSpaceOnUse"
       id="clipPath32"><path
         d="M 174,379 H 400 V 129 H 174 Z"
         id="path30" /></clipPath><clipPath
       clipPathUnits="userSpaceOnUse"
       id="clipPath46"><path
         d="m 120,316 h 43 V 129 h -43 z"
         id="path44" /></clipPath></defs><sodipodi:namedview
     pagecolor="#ffffff"
     bordercolor="#666666"
     borderopacity="1"
     objecttolerance="10"
     gridtolerance="10"
     guidetolerance="10"
     inkscape:pageopacity="0"
     inkscape:pageshadow="2"
     inkscape:window-width="640"
     inkscape:window-height="480"
     id="namedview4" /><g
     id="g10"
     inkscape:groupmode="layer"
     inkscape:label="news-2389226"
     transform="matrix(1.3333333,0,0,-1.3333333,0,666.66667)"><path
       d="M 1,0 H 500 V 499 H 1 Z"
       style="fill:#ffffff;fill-opacity:1;fill-rule:nonzero;stroke:none"
       id="path12" /><g
       id="g14"><g
         id="g16"
         clip-path="url(#clipPath20)"><g
           id="g22"
           transform="translate(463,249)"><path
             d="m 0,0 c 0,-117.084 -94.916,-212 -212,-212 -117.084,0 -212,94.916 -212,212 0,117.084 94.916,212 212,212 C -94.916,212 0,117.084 0,0"
             style="fill:#31b5ab;fill-opacity:1;fill-rule:nonzero;stroke:none"
             id="path24" /></g><g
           id="g26"><g
             id="g28" /><g
             id="g38"><g
               clip-path="url(#clipPath32)"
               opacity="0.199997"
               id="g36"><path
                 d="M 174,129 H 400 V 379 H 174 Z"
                 style="fill:#545353;fill-opacity:1;fill-rule:nonzero;stroke:none"
                 id="path34" /></g></g></g><g
           id="g40"><g
             id="g42" /><g
             id="g54"><g
               clip-path="url(#clipPath46)"
               opacity="0.199997"
               id="g52"><g
                 transform="translate(161.5,129)"
                 id="g50"><path
                   d="m 0,0 h 1.5 v 187 h -43 V 41.5 C -41.5,18.58 -22.92,0 0,0"
                   style="fill:#545353;fill-opacity:1;fill-rule:nonzero;stroke:none"
                   id="path48" /></g></g></g></g><path
           d="M 164,124 H 390 V 374 H 164 Z"
           style="fill:#ffffff;fill-opacity:1;fill-rule:nonzero;stroke:none"
           id="path56" /><g
           id="g58"
           transform="translate(156.5,124)"><path
             d="m 0,0 h 1.5 v 187 h -43 V 41.5 C -41.5,18.58 -22.92,0 0,0"
             style="fill:#ffffff;fill-opacity:1;fill-rule:nonzero;stroke:none"
             id="path60" /></g><g
           id="g62"
           transform="translate(212.3437,307)"><path
             d="M 0,0 V 34.898 H 7.008 L 17.039,17.367 c 0.766,-1.359 1.477,-2.734 2.133,-4.125 0.656,-1.39 1.258,-2.797 1.805,-4.219 -0.172,1.032 -0.297,2.137 -0.375,3.317 -0.079,1.18 -0.118,2.441 -0.118,3.785 v 18.773 h 6.094 L 26.578,0 H 20.484 L 9.586,18 c -0.594,1.016 -1.223,2.234 -1.887,3.656 -0.664,1.422 -1.347,3 -2.051,4.735 0.157,-0.954 0.27,-2 0.34,-3.141 0.071,-1.141 0.106,-2.461 0.106,-3.961 L 6.094,0 Z"
             style="fill:#31b5ab;fill-opacity:1;fill-rule:nonzero;stroke:none"
             id="path64" /></g><g
           id="g66"
           transform="translate(246.8437,307)"><path
             d="M 0,0 V 34.898 H 22.664 V 29.227 H 6.539 v -8.25 H 18.281 V 15.398 H 6.539 V 5.953 H 23.367 V 0 Z"
             style="fill:#31b5ab;fill-opacity:1;fill-rule:nonzero;stroke:none"
             id="path68" /></g><g
           id="g70"
           transform="translate(281.3203,307)"><path
             d="m 0,0 -8.977,34.898 h 6.422 L 2.438,14.836 C 2.625,14.07 2.84,13.016 3.082,11.672 3.324,10.328 3.57,8.781 3.82,7.031 c 0.11,1.75 0.5,3.961 1.172,6.633 0.11,0.453 0.188,0.781 0.235,0.984 l 5.086,20.25 h 5.625 l 4.828,-20.062 c 0.187,-0.766 0.402,-1.82 0.644,-3.164 0.242,-1.344 0.496,-2.899 0.762,-4.664 0.094,1.14 0.25,2.34 0.469,3.597 0.218,1.258 0.507,2.606 0.867,4.043 l 5.086,20.25 h 6.445 L 26.062,0 h -7.265 l -4.359,17.461 c -0.391,1.641 -0.704,3.078 -0.938,4.312 -0.234,1.235 -0.398,2.391 -0.492,3.469 -0.219,-1.609 -0.445,-3.07 -0.68,-4.383 -0.234,-1.312 -0.461,-2.406 -0.68,-3.281 L 7.195,0 Z"
             style="fill:#31b5ab;fill-opacity:1;fill-rule:nonzero;stroke:none"
             id="path72" /></g><g
           id="g74"
           transform="translate(318.2578,314.875)"><path
             d="m 0,0 5.953,2.648 c 0.922,-1.859 1.949,-3.214 3.082,-4.066 1.133,-0.852 2.473,-1.277 4.02,-1.277 1.75,0 3.132,0.398 4.148,1.195 1.016,0.797 1.524,1.875 1.524,3.234 0,1.079 -0.375,1.981 -1.125,2.707 -0.75,0.727 -2.102,1.45 -4.055,2.168 -0.266,0.11 -0.649,0.25 -1.149,0.422 C 8.977,8.281 6.594,9.344 5.25,10.219 3.922,11.063 2.906,12.141 2.203,13.453 1.5,14.766 1.148,16.25 1.148,17.906 c 0,2.813 1.051,5.098 3.153,6.856 2.101,1.758 4.847,2.636 8.238,2.636 2.969,0 5.441,-0.64 7.418,-1.921 1.977,-1.282 3.426,-3.18 4.348,-5.696 l -5.953,-2.179 c -0.735,1.562 -1.602,2.699 -2.602,3.41 -1,0.711 -2.234,1.066 -3.703,1.066 -1.422,0 -2.543,-0.332 -3.363,-0.996 -0.821,-0.664 -1.231,-1.566 -1.231,-2.707 0,-1.766 2.008,-3.437 6.024,-5.016 1.234,-0.484 2.203,-0.875 2.906,-1.171 3.359,-1.422 5.644,-2.875 6.855,-4.36 1.211,-1.484 1.817,-3.422 1.817,-5.812 0,-3.219 -1.055,-5.75 -3.164,-7.594 -2.11,-1.844 -5.008,-2.766 -8.696,-2.766 -3.203,0 -5.918,0.703 -8.144,2.11 C 2.824,-4.828 1.141,-2.75 0,0"
             style="fill:#31b5ab;fill-opacity:1;fill-rule:nonzero;stroke:none"
             id="path76" /></g><g
           id="g78"
           transform="translate(359.8281,269.5)"><path
             d="m 0,0 h -164 c -1.381,0 -2.5,1.119 -2.5,2.5 0,1.381 1.119,2.5 2.5,2.5 H 0 C 1.381,5 2.5,3.881 2.5,2.5 2.5,1.119 1.381,0 0,0"
             style="fill:#31b5ab;fill-opacity:1;fill-rule:nonzero;stroke:none"
             id="path80" /></g><g
           id="g82"
           transform="translate(359.8281,234.5)"><path
             d="m 0,0 h -164 c -1.381,0 -2.5,1.119 -2.5,2.5 0,1.381 1.119,2.5 2.5,2.5 H 0 C 1.381,5 2.5,3.881 2.5,2.5 2.5,1.119 1.381,0 0,0"
             style="fill:#31b5ab;fill-opacity:1;fill-rule:nonzero;stroke:none"
             id="path84" /></g><g
           id="g86"
           transform="translate(359.8281,199.5)"><path
             d="m 0,0 h -164 c -1.381,0 -2.5,1.119 -2.5,2.5 0,1.381 1.119,2.5 2.5,2.5 H 0 C 1.381,5 2.5,3.881 2.5,2.5 2.5,1.119 1.381,0 0,0"
             style="fill:#31b5ab;fill-opacity:1;fill-rule:nonzero;stroke:none"
             id="path88" /></g><g
           id="g90"
           transform="translate(359.8281,164.5)"><path
             d="m 0,0 h -164 c -1.381,0 -2.5,1.119 -2.5,2.5 0,1.381 1.119,2.5 2.5,2.5 H 0 C 1.381,5 2.5,3.881 2.5,2.5 2.5,1.119 1.381,0 0,0"
             style="fill:#31b5ab;fill-opacity:1;fill-rule:nonzero;stroke:none"
             id="path92" /></g></g></g></g></svg>
